<?xml version="1.0" standalone="no"?><svg xmlns:xlink="http://www.w3.org/1999/xlink" xmlns="http://www.w3.org/2000/svg" viewBox="0 0 1000 1777.7801977610313" preserveAspectRatio="xMaxYMax slice"><g transform="scale(2.7224811604303696)"><rect x="0" y="0" width="367.3125" height="653" fill="#fdf6f2"/><rect x="0" y="0" width="40.8125" height="40.8125" fill="#fdf6f2"/><rect x="0" y="0" width="20.41" height="20.41" fill="#b79fb5"/><path d="M 0 20.41 A 20.41 20.41 0 0 0 20.41 0 L 0 0" fill="#feca93"/><rect x="20.41" y="0" width="20.41" height="20.41" fill="#fde4ca"/><circle cx="30.615000000000002" cy="10.205" r="10.205" fill="#d2c0cc"/><rect x="0" y="20.41" width="20.41" height="20.41" fill="#fdebdb"/><circle cx="10.205" cy="30.615000000000002" r="10.205" fill="#feddbb"/><rect x="20.41" y="20.41" width="20.41" height="20.41" fill="#f6edec"/><path d="M 20.41 20.41 A 20.41 20.41 0 0 1  40.82 40.82 L 20.41 20.41 A 20.41 20.41 0 0 0 40.82 40.82" fill="#fecd98"/><rect x="40.81" y="0" width="40.81" height="40.81" fill="#fecc97"/><path d="M 40.81 0 A 40.81 40.81 0 0 1  81.62 40.81 L 40.81 0 A 40.81 40.81 0 0 0 81.62 40.81" fill="#f3e9e9"/><rect x="81.63" y="0" width="40.81" height="40.81" fill="#89668d"/><path d="M 81.63 0 A 40.81 40.81 0 0 1 122.44 40.81 L 81.63 40.81" fill="#fdf1e7"/><rect x="122.44" y="0" width="40.81" height="40.81" fill="#e5d8dd"/><path d="M 122.44 0 A 40.81 40.81 0 0 1 163.25 40.81 L 122.44 40.81" fill="#fdedde"/><rect x="163.25" y="0" width="40.81" height="40.81" fill="#79527e"/><path d="M 163.25 0 A 40.81 40.81 0 0 1  204.06 40.81 L 163.25 0 A 40.81 40.81 0 0 0 204.06 40.81" fill="#fde0c3"/><rect x="204.06" y="0" width="40.81" height="40.81" fill="#fde2c7"/><path d="M 204.06 40.81 A 40.81 40.81 0 0 1  244.87 0 L 204.06 40.81 A 40.81 40.81 0 0 0 244.87 0" fill="#8e6c91"/><rect x="244.88" y="0" width="40.81" height="40.81" fill="#c9b6c5"/><circle cx="265.28499999999997" cy="20.405" r="20.405" fill="#fecc95"/><rect x="285.6875" y="0" width="40.8125" height="40.8125" fill="#fdf6f2"/><rect x="285.69" y="0" width="20.41" height="20.41" fill="#937396"/><path d="M 285.69 20.41 A 20.41 20.41 0 0 1  306.1 0 L 285.69 20.41 A 20.41 20.41 0 0 0 306.1 0" fill="#d7c7d1"/><rect x="306.09" y="0" width="20.41" height="20.41" fill="#fde1c4"/><path d="M 306.09 20.41 A 20.41 20.41 0 0 1  326.5 0 L 306.09 20.41 A 20.41 20.41 0 0 0 326.5 0" fill="#f6eeec"/><rect x="285.69" y="20.41" width="20.41" height="20.41" fill="#846088"/><path d="M 285.69 40.82 A 20.41 20.41 0 0 1  306.1 20.41 L 306.1 40.82" fill="#fedab5"/><rect x="306.09" y="20.41" width="20.41" height="20.41" fill="#fec88d"/><path d="M 306.09 20.41 A 20.41 20.41 0 0 1  326.5 40.82 L 306.09 20.41 A 20.41 20.41 0 0 0 326.5 40.82" fill="#78517e"/><rect x="326.5" y="0" width="40.81" height="40.81" fill="#fde9d6"/><path d="M 326.5 40.81 A 40.81 40.81 0 0 1  367.31 0 L 367.31 40.81" fill="#fecc96"/><rect x="0" y="40.81" width="40.81" height="40.81" fill="#fde8d3"/><path d="M 0 40.81 A 40.81 40.81 0 0 0 40.81 81.62 L 40.81 40.81" fill="#8b698f"/><rect x="40.81" y="40.81" width="40.81" height="40.81" fill="#d9c9d2"/><path d="M 40.81 81.62 A 40.81 40.81 0 0 1  81.62 40.81 L 40.81 81.62 A 40.81 40.81 0 0 0 81.62 40.81" fill="#d1c0cc"/><rect x="81.63" y="40.81" width="40.81" height="40.81" fill="#fece9a"/><path d="M 81.63 81.62 A 40.81 40.81 0 0 1  122.44 40.81 L 81.63 81.62 A 40.81 40.81 0 0 0 122.44 40.81" fill="#fde6cf"/><rect x="122.44" y="40.81" width="40.81" height="40.81" fill="#f5eceb"/><path d="M 122.44 81.62 A 40.81 40.81 0 0 1  163.25 40.81 L 163.25 81.62" fill="#a88da8"/><rect x="163.25" y="40.81" width="40.81" height="40.81" fill="#fece9b"/><path d="M 163.25 40.81 A 40.81 40.81 0 0 1  204.06 81.62 L 163.25 40.81 A 40.81 40.81 0 0 0 204.06 81.62" fill="#ebe0e2"/><rect x="204.06" y="40.81" width="40.81" height="40.81" fill="#bba4b8"/><circle cx="224.465" cy="61.215" r="20.405" fill="#fde7d0"/><rect x="244.88" y="40.81" width="40.81" height="40.81" fill="#d5c5cf"/><path d="M 244.88 40.81 A 40.81 40.81 0 0 1  285.69 81.62 L 244.88 40.81 A 40.81 40.81 0 0 0 285.69 81.62" fill="#cdbbc8"/><rect x="285.69" y="40.81" width="40.81" height="40.81" fill="#fdf3ec"/><circle cx="306.095" cy="61.215" r="20.405" fill="#98799a"/><rect x="326.5" y="40.81" width="40.81" height="40.81" fill="#fdebda"/><path d="M 326.5 40.81 A 40.81 40.81 0 0 1  367.31 81.62 L 326.5 40.81 A 40.81 40.81 0 0 0 367.31 81.62" fill="#feca92"/><rect x="0" y="81.63" width="40.81" height="40.81" fill="#fed3a5"/><path d="M 0 81.63 A 40.81 40.81 0 0 1  40.81 122.44 L 0 81.63 A 40.81 40.81 0 0 0 40.81 122.44" fill="#fecb94"/><rect x="40.81" y="81.63" width="40.81" height="40.81" fill="#fdf4ee"/><circle cx="61.215" cy="102.035" r="20.405" fill="#fddebe"/><rect x="81.63" y="81.63" width="40.81" height="40.81" fill="#af95ae"/><path d="M 81.63 81.63 A 40.81 40.81 0 0 1  122.44 122.44 L 81.63 81.63 A 40.81 40.81 0 0 0 122.44 122.44" fill="#d4c3ce"/><rect x="122.44" y="81.63" width="40.81" height="40.81" fill="#fde8d4"/><circle cx="142.845" cy="102.035" r="20.405" fill="#feca91"/><rect x="163.25" y="81.63" width="40.81" height="40.81" fill="#a98ea9"/><path d="M 163.25 122.44 A 40.81 40.81 0 0 1  204.06 81.63 L 163.25 122.44 A 40.81 40.81 0 0 0 204.06 81.63" fill="#b299b0"/><rect x="204.0625" y="81.625" width="40.8125" height="40.8125" fill="#fdf6f2"/><rect x="204.06" y="81.63" width="20.41" height="20.41" fill="#906e92"/><circle cx="214.26500000000001" cy="91.835" r="10.205" fill="#e0d2d8"/><rect x="224.47" y="81.63" width="20.41" height="20.41" fill="#fed7ae"/><circle cx="234.675" cy="91.835" r="10.205" fill="#8b688e"/><rect x="204.06" y="102.03" width="20.41" height="20.41" fill="#fde0c2"/><path d="M 204.06 122.44 A 20.41 20.41 0 0 1  224.47 102.03 L 204.06 122.44 A 20.41 20.41 0 0 0 224.47 102.03" fill="#c1acbe"/><rect x="224.47" y="102.03" width="20.41" height="20.41" fill="#fedebd"/><path d="M 224.47 122.44 A 20.41 20.41 0 0 1  244.88 102.03 L 244.88 122.44" fill="#7e5883"/><rect x="244.88" y="81.63" width="40.81" height="40.81" fill="#79527f"/><path d="M 244.88 81.63 A 40.81 40.81 0 0 1  285.69 122.44 L 244.88 81.63 A 40.81 40.81 0 0 0 285.69 122.44" fill="#967597"/><rect x="285.69" y="81.63" width="40.81" height="40.81" fill="#8b688e"/><path d="M 285.69 81.63 A 40.81 40.81 0 0 0 326.5 122.44 L 326.5 81.63" fill="#fed6ac"/><rect x="326.5" y="81.63" width="40.81" height="40.81" fill="#b9a1b6"/><circle cx="346.905" cy="102.035" r="20.405" fill="#fed6ac"/><rect x="0" y="122.44" width="40.81" height="40.81" fill="#fdeddf"/><path d="M 0 122.44 A 40.81 40.81 0 0 1  40.81 163.25 L 0 122.44 A 40.81 40.81 0 0 0 40.81 163.25" fill="#d0becb"/><rect x="40.81" y="122.44" width="40.81" height="40.81" fill="#fed2a3"/><path d="M 40.81 122.44 A 40.81 40.81 0 0 1  81.62 163.25 L 40.81 122.44 A 40.81 40.81 0 0 0 81.62 163.25" fill="#fecc97"/><rect x="81.63" y="122.44" width="40.81" height="40.81" fill="#87638b"/><path d="M 81.63 122.44 A 40.81 40.81 0 0 1 122.44 163.25 L 81.63 163.25" fill="#fde3c9"/><rect x="122.44" y="122.44" width="40.81" height="40.81" fill="#fde6d0"/><circle cx="142.845" cy="142.845" r="20.405" fill="#f3eaea"/><rect x="163.25" y="122.4375" width="40.8125" height="40.8125" fill="#fdf6f2"/><rect x="163.25" y="122.44" width="20.41" height="20.41" fill="#fedab5"/><path d="M 163.25 122.44 A 20.41 20.41 0 0 1  183.66 142.85 L 163.25 122.44 A 20.41 20.41 0 0 0 183.66 142.85" fill="#fddfc0"/><rect x="183.66" y="122.44" width="20.41" height="20.41" fill="#815c85"/><circle cx="193.865" cy="132.645" r="10.205" fill="#fdead7"/><rect x="163.25" y="142.84" width="20.41" height="20.41" fill="#fdf4ee"/><path d="M 163.25 142.84 A 20.41 20.41 0 0 1  183.66 163.25 L 163.25 142.84 A 20.41 20.41 0 0 0 183.66 163.25" fill="#fec78b"/><rect x="183.66" y="142.84" width="20.41" height="20.41" fill="#fec98f"/><path d="M 183.66 142.84 A 20.41 20.41 0 0 1  204.07 163.25 L 183.66 142.84 A 20.41 20.41 0 0 0 204.07 163.25" fill="#e0d2d9"/><rect x="204.06" y="122.44" width="40.81" height="40.81" fill="#e9dde0"/><path d="M 204.06 122.44 A 40.81 40.81 0 0 0 244.87 163.25 L 244.87 122.44" fill="#fdebdb"/><rect x="244.88" y="122.44" width="40.81" height="40.81" fill="#fed7ae"/><path d="M 244.88 122.44 A 40.81 40.81 0 0 0 285.69 163.25 L 285.69 122.44" fill="#997a9a"/><rect x="285.69" y="122.44" width="40.81" height="40.81" fill="#fed4a8"/><circle cx="306.095" cy="142.845" r="20.405" fill="#78517e"/><rect x="326.5" y="122.4375" width="40.8125" height="40.8125" fill="#fdf6f2"/><rect x="326.5" y="122.44" width="20.41" height="20.41" fill="#fde1c4"/><circle cx="336.705" cy="132.645" r="10.205" fill="#916f93"/><rect x="346.91" y="122.44" width="20.41" height="20.41" fill="#fdf1e6"/><path d="M 346.91 142.85 A 20.41 20.41 0 0 1  367.32000000000005 122.44 L 367.32000000000005 142.85" fill="#fed6ac"/><rect x="326.5" y="142.84" width="20.41" height="20.41" fill="#fed2a2"/><path d="M 326.5 163.25 A 20.41 20.41 0 0 1  346.91 142.84 L 326.5 163.25 A 20.41 20.41 0 0 0 346.91 142.84" fill="#fdedde"/><rect x="346.91" y="142.84" width="20.41" height="20.41" fill="#ddced6"/><circle cx="357.115" cy="153.04500000000002" r="10.205" fill="#bba4b8"/><rect x="0" y="163.25" width="40.8125" height="40.8125" fill="#fdf6f2"/><rect x="0" y="163.25" width="20.41" height="20.41" fill="#86628a"/><circle cx="10.205" cy="173.455" r="10.205" fill="#906f93"/><rect x="20.41" y="163.25" width="20.41" height="20.41" fill="#a78ba6"/><path d="M 20.41 183.66 A 20.41 20.41 0 0 1  40.82 163.25 L 20.41 183.66 A 20.41 20.41 0 0 0 40.82 163.25" fill="#fec88d"/><rect x="0" y="183.66" width="20.41" height="20.41" fill="#dfd0d7"/><circle cx="10.205" cy="193.865" r="10.205" fill="#ebe0e2"/><rect x="20.41" y="183.66" width="20.41" height="20.41" fill="#aa8fa9"/><path d="M 20.41 183.66 A 20.41 20.41 0 0 0 40.82 204.07 L 40.82 183.66" fill="#dfd1d8"/><rect x="40.81" y="163.25" width="40.81" height="40.81" fill="#856089"/><circle cx="61.215" cy="183.655" r="20.405" fill="#fdf4ee"/><rect x="81.625" y="163.25" width="40.8125" height="40.8125" fill="#fdf6f2"/><rect x="81.63" y="163.25" width="20.41" height="20.41" fill="#efe4e5"/><path d="M 81.63 163.25 A 20.41 20.41 0 0 1  102.03999999999999 183.66 L 81.63 163.25 A 20.41 20.41 0 0 0 102.03999999999999 183.66" fill="#eee3e5"/><rect x="102.03" y="163.25" width="20.41" height="20.41" fill="#fed4a8"/><path d="M 102.03 163.25 A 20.41 20.41 0 0 1  122.44 183.66 L 102.03 163.25 A 20.41 20.41 0 0 0 122.44 183.66" fill="#e4d7dc"/><rect x="81.63" y="183.66" width="20.41" height="20.41" fill="#bda6ba"/><path d="M 81.63 204.07 A 20.41 20.41 0 0 1  102.03999999999999 183.66 L 102.03999999999999 204.07" fill="#997a9b"/><rect x="102.03" y="183.66" width="20.41" height="20.41" fill="#9c7d9d"/><path d="M 102.03 183.66 A 20.41 20.41 0 0 1  122.44 204.07 L 102.03 183.66 A 20.41 20.41 0 0 0 122.44 204.07" fill="#7a5480"/><rect x="122.44" y="163.25" width="40.81" height="40.81" fill="#dbccd4"/><path d="M 122.44 204.06 A 40.81 40.81 0 0 1  163.25 163.25 L 122.44 204.06 A 40.81 40.81 0 0 0 163.25 163.25" fill="#e4d6dc"/><rect x="163.25" y="163.25" width="40.8125" height="40.8125" fill="#fdf6f2"/><rect x="163.25" y="163.25" width="20.41" height="20.41" fill="#88658c"/><path d="M 163.25 183.66 A 20.41 20.41 0 0 1  183.66 163.25 L 163.25 183.66 A 20.41 20.41 0 0 0 183.66 163.25" fill="#f9f2ef"/><rect x="183.66" y="163.25" width="20.41" height="20.41" fill="#d6c6d0"/><path d="M 183.66 183.66 A 20.41 20.41 0 0 1  204.07 163.25 L 204.07 183.66" fill="#8b688e"/><rect x="163.25" y="183.66" width="20.41" height="20.41" fill="#b69eb4"/><path d="M 163.25 204.07 A 20.41 20.41 0 0 0 183.66 183.66 L 163.25 183.66" fill="#fdf4ed"/><rect x="183.66" y="183.66" width="20.41" height="20.41" fill="#846088"/><path d="M 183.66 204.07 A 20.41 20.41 0 0 0 204.07 183.66 L 183.66 183.66" fill="#e0d2d9"/><rect x="204.0625" y="163.25" width="40.8125" height="40.8125" fill="#fdf6f2"/><rect x="204.06" y="163.25" width="20.41" height="20.41" fill="#ede2e4"/><path d="M 204.06 163.25 A 20.41 20.41 0 0 1  224.47 183.66 L 204.06 163.25 A 20.41 20.41 0 0 0 224.47 183.66" fill="#bca6b9"/><rect x="224.47" y="163.25" width="20.41" height="20.41" fill="#d2c0cc"/><circle cx="234.675" cy="173.455" r="10.205" fill="#a68aa6"/><rect x="204.06" y="183.66" width="20.41" height="20.41" fill="#fed8b1"/><circle cx="214.26500000000001" cy="193.865" r="10.205" fill="#815b85"/><rect x="224.47" y="183.66" width="20.41" height="20.41" fill="#feddbb"/><path d="M 224.47 204.07 A 20.41 20.41 0 0 1  244.88 183.66 L 224.47 204.07 A 20.41 20.41 0 0 0 244.88 183.66" fill="#fde2c6"/><rect x="244.88" y="163.25" width="40.81" height="40.81" fill="#927195"/><path d="M 244.88 163.25 A 40.81 40.81 0 0 1  285.69 204.06 L 244.88 163.25 A 40.81 40.81 0 0 0 285.69 204.06" fill="#e1d3d9"/><rect x="285.69" y="163.25" width="40.81" height="40.81" fill="#fdf6f2"/><path d="M 285.69 204.06 A 40.81 40.81 0 0 0 326.5 163.25 L 285.69 163.25" fill="#ccbac7"/><rect x="326.5" y="163.25" width="40.81" height="40.81" fill="#f9f1ef"/><path d="M 326.5 204.06 A 40.81 40.81 0 0 0 367.31 163.25 L 326.5 163.25" fill="#8f6d91"/><rect x="0" y="204.06" width="40.81" height="40.81" fill="#b096af"/><path d="M 0 204.06 A 40.81 40.81 0 0 0 40.81 244.87 L 40.81 204.06" fill="#c2acbe"/><rect x="40.81" y="204.06" width="40.81" height="40.81" fill="#fde8d4"/><path d="M 40.81 204.06 A 40.81 40.81 0 0 0 81.62 244.87 L 81.62 204.06" fill="#baa2b7"/><rect x="81.63" y="204.06" width="40.81" height="40.81" fill="#9b7d9d"/><path d="M 81.63 244.87 A 40.81 40.81 0 0 1  122.44 204.06 L 81.63 244.87 A 40.81 40.81 0 0 0 122.44 204.06" fill="#fdedde"/><rect x="122.44" y="204.06" width="40.81" height="40.81" fill="#ac91ab"/><circle cx="142.845" cy="224.465" r="20.405" fill="#fde9d6"/><rect x="163.25" y="204.0625" width="40.8125" height="40.8125" fill="#fdf6f2"/><rect x="163.25" y="204.06" width="20.41" height="20.41" fill="#fdf3ec"/><path d="M 163.25 204.06 A 20.41 20.41 0 0 1  183.66 224.47 L 163.25 204.06 A 20.41 20.41 0 0 0 183.66 224.47" fill="#fdebda"/><rect x="183.66" y="204.06" width="20.41" height="20.41" fill="#fed5ab"/><circle cx="193.865" cy="214.26500000000001" r="10.205" fill="#c8b4c3"/><rect x="163.25" y="224.47" width="20.41" height="20.41" fill="#ece0e3"/><path d="M 163.25 244.88 A 20.41 20.41 0 0 1  183.66 224.47 L 163.25 244.88 A 20.41 20.41 0 0 0 183.66 224.47" fill="#8e6c91"/><rect x="183.66" y="224.47" width="20.41" height="20.41" fill="#8c6a8f"/><circle cx="193.865" cy="234.675" r="10.205" fill="#e7dadf"/><rect x="204.06" y="204.06" width="40.81" height="40.81" fill="#fde8d4"/><path d="M 204.06 244.87 A 40.81 40.81 0 0 1  244.87 204.06 L 204.06 244.87 A 40.81 40.81 0 0 0 244.87 204.06" fill="#e5d8dd"/><rect x="244.88" y="204.06" width="40.81" height="40.81" fill="#a88da8"/><circle cx="265.28499999999997" cy="224.465" r="20.405" fill="#fed9b2"/><rect x="285.69" y="204.06" width="40.81" height="40.81" fill="#fde3c8"/><path d="M 285.69 204.06 A 40.81 40.81 0 0 1  326.5 244.87 L 285.69 204.06 A 40.81 40.81 0 0 0 326.5 244.87" fill="#8e6c91"/><rect x="326.5" y="204.0625" width="40.8125" height="40.8125" fill="#fdf6f2"/><rect x="326.5" y="204.06" width="20.41" height="20.41" fill="#8f6d91"/><path d="M 326.5 224.47 A 20.41 20.41 0 0 1  346.91 204.06 L 346.91 224.47" fill="#f0e6e7"/><rect x="346.91" y="204.06" width="20.41" height="20.41" fill="#e2d4da"/><path d="M 346.91 204.06 A 20.41 20.41 0 0 1  367.32000000000005 224.47 L 346.91 204.06 A 20.41 20.41 0 0 0 367.32000000000005 224.47" fill="#d3c2cd"/><rect x="326.5" y="224.47" width="20.41" height="20.41" fill="#fedcb9"/><path d="M 326.5 224.47 A 20.41 20.41 0 0 0 346.91 244.88 L 346.91 224.47" fill="#fed5aa"/><rect x="346.91" y="224.47" width="20.41" height="20.41" fill="#fec98f"/><path d="M 346.91 224.47 A 20.41 20.41 0 0 0 367.32000000000005 244.88 L 367.32000000000005 224.47" fill="#fde0c3"/><rect x="0" y="244.88" width="40.81" height="40.81" fill="#fde4cb"/><path d="M 0 285.69 A 40.81 40.81 0 0 1  40.81 244.88 L 0 285.69 A 40.81 40.81 0 0 0 40.81 244.88" fill="#bba3b8"/><rect x="40.81" y="244.88" width="40.81" height="40.81" fill="#fdf2e9"/><path d="M 40.81 285.69 A 40.81 40.81 0 0 1  81.62 244.88 L 81.62 285.69" fill="#997a9b"/><rect x="81.63" y="244.88" width="40.81" height="40.81" fill="#fedbb7"/><path d="M 81.63 285.69 A 40.81 40.81 0 0 1  122.44 244.88 L 81.63 285.69 A 40.81 40.81 0 0 0 122.44 244.88" fill="#a88ca7"/><rect x="122.44" y="244.88" width="40.81" height="40.81" fill="#cdbac8"/><path d="M 122.44 285.69 A 40.81 40.81 0 0 1  163.25 244.88 L 163.25 285.69" fill="#fedbb7"/><rect x="163.25" y="244.875" width="40.8125" height="40.8125" fill="#fdf6f2"/><rect x="163.25" y="244.88" width="20.41" height="20.41" fill="#fedab6"/><path d="M 163.25 244.88 A 20.41 20.41 0 0 1  183.66 265.29 L 163.25 244.88 A 20.41 20.41 0 0 0 183.66 265.29" fill="#fecd97"/><rect x="183.66" y="244.88" width="20.41" height="20.41" fill="#927194"/><circle cx="193.865" cy="255.085" r="10.205" fill="#977899"/><rect x="163.25" y="265.28" width="20.41" height="20.41" fill="#efe5e6"/><circle cx="173.455" cy="275.48499999999996" r="10.205" fill="#bfa9bc"/><rect x="183.66" y="265.28" width="20.41" height="20.41" fill="#856189"/><path d="M 183.66 265.28 A 20.41 20.41 0 0 1  204.07 285.69 L 183.66 265.28 A 20.41 20.41 0 0 0 204.07 285.69" fill="#feca92"/><rect x="204.06" y="244.88" width="40.81" height="40.81" fill="#fde0c2"/><path d="M 204.06 244.88 A 40.81 40.81 0 0 0 244.87 285.69 L 244.87 244.88" fill="#bda6ba"/><rect x="244.88" y="244.88" width="40.81" height="40.81" fill="#fdf6f2"/><circle cx="265.28499999999997" cy="265.28499999999997" r="20.405" fill="#815d86"/><rect x="285.69" y="244.88" width="40.81" height="40.81" fill="#916f93"/><path d="M 285.69 244.88 A 40.81 40.81 0 0 1 326.5 285.69 L 285.69 285.69" fill="#967798"/><rect x="326.5" y="244.88" width="40.81" height="40.81" fill="#fdebda"/><path d="M 326.5 285.69 A 40.81 40.81 0 0 1  367.31 244.88 L 326.5 285.69 A 40.81 40.81 0 0 0 367.31 244.88" fill="#ccb9c7"/><rect x="0" y="285.69" width="40.81" height="40.81" fill="#feca93"/><circle cx="20.405" cy="306.095" r="20.405" fill="#fed4a7"/><rect x="40.81" y="285.69" width="40.81" height="40.81" fill="#8f6e92"/><path d="M 40.81 285.69 A 40.81 40.81 0 0 1  81.62 326.5 L 40.81 285.69 A 40.81 40.81 0 0 0 81.62 326.5" fill="#fed3a6"/><rect x="81.63" y="285.69" width="40.81" height="40.81" fill="#fdeee1"/><circle cx="102.035" cy="306.095" r="20.405" fill="#fecb94"/><rect x="122.44" y="285.69" width="40.81" height="40.81" fill="#fed1a1"/><path d="M 122.44 326.5 A 40.81 40.81 0 0 1  163.25 285.69 L 122.44 326.5 A 40.81 40.81 0 0 0 163.25 285.69" fill="#fde7d0"/><rect x="163.25" y="285.6875" width="40.8125" height="40.8125" fill="#fdf6f2"/><rect x="163.25" y="285.69" width="20.41" height="20.41" fill="#987899"/><path d="M 163.25 306.1 A 20.41 20.41 0 0 1  183.66 285.69 L 163.25 306.1 A 20.41 20.41 0 0 0 183.66 285.69" fill="#feddbc"/><rect x="183.66" y="285.69" width="20.41" height="20.41" fill="#fec98f"/><path d="M 183.66 306.1 A 20.41 20.41 0 0 1  204.07 285.69 L 183.66 306.1 A 20.41 20.41 0 0 0 204.07 285.69" fill="#fde2c6"/><rect x="163.25" y="306.09" width="20.41" height="20.41" fill="#d0becb"/><path d="M 163.25 326.5 A 20.41 20.41 0 0 1  183.66 306.09 L 163.25 326.5 A 20.41 20.41 0 0 0 183.66 306.09" fill="#8f6d92"/><rect x="183.66" y="306.09" width="20.41" height="20.41" fill="#fbf4f0"/><circle cx="193.865" cy="316.29499999999996" r="10.205" fill="#fdeddf"/><rect x="204.0625" y="285.6875" width="40.8125" height="40.8125" fill="#fdf6f2"/><rect x="204.06" y="285.69" width="20.41" height="20.41" fill="#fde2c6"/><path d="M 204.06 285.69 A 20.41 20.41 0 0 1 224.47 306.1 L 204.06 306.1" fill="#f2e8e8"/><rect x="224.47" y="285.69" width="20.41" height="20.41" fill="#fde2c7"/><circle cx="234.675" cy="295.895" r="10.205" fill="#fedbb8"/><rect x="204.06" y="306.09" width="20.41" height="20.41" fill="#d3c1cd"/><path d="M 204.06 306.09 A 20.41 20.41 0 0 0 224.47 326.5 L 224.47 306.09" fill="#bba3b8"/><rect x="224.47" y="306.09" width="20.41" height="20.41" fill="#fde6cf"/><path d="M 224.47 326.5 A 20.41 20.41 0 0 1  244.88 306.09 L 224.47 326.5 A 20.41 20.41 0 0 0 244.88 306.09" fill="#fde2c6"/><rect x="244.88" y="285.69" width="40.81" height="40.81" fill="#a488a4"/><circle cx="265.28499999999997" cy="306.095" r="20.405" fill="#fdf5ef"/><rect x="285.69" y="285.69" width="40.81" height="40.81" fill="#fedab5"/><path d="M 285.69 285.69 A 40.81 40.81 0 0 0 326.5 326.5 L 326.5 285.69" fill="#fed2a4"/><rect x="326.5" y="285.69" width="40.81" height="40.81" fill="#fde8d4"/><path d="M 326.5 285.69 A 40.81 40.81 0 0 0 367.31 326.5 L 367.31 285.69" fill="#98799a"/><rect x="0" y="326.5" width="40.81" height="40.81" fill="#fdefe3"/><path d="M 0 367.31 A 40.81 40.81 0 0 1  40.81 326.5 L 0 367.31 A 40.81 40.81 0 0 0 40.81 326.5" fill="#ac92ab"/><rect x="40.81" y="326.5" width="40.81" height="40.81" fill="#fed8b0"/><path d="M 40.81 326.5 A 40.81 40.81 0 0 1  81.62 367.31 L 40.81 326.5 A 40.81 40.81 0 0 0 81.62 367.31" fill="#dacad3"/><rect x="81.63" y="326.5" width="40.81" height="40.81" fill="#fec78b"/><path d="M 81.63 367.31 A 40.81 40.81 0 0 1  122.44 326.5 L 122.44 367.31" fill="#fdf0e5"/><rect x="122.44" y="326.5" width="40.81" height="40.81" fill="#fdf0e4"/><path d="M 122.44 367.31 A 40.81 40.81 0 0 1  163.25 326.5 L 163.25 367.31" fill="#89658c"/><rect x="163.25" y="326.5" width="40.81" height="40.81" fill="#fdf1e7"/><circle cx="183.655" cy="346.905" r="20.405" fill="#e2d4da"/><rect x="204.06" y="326.5" width="40.81" height="40.81" fill="#fed7af"/><path d="M 204.06 367.31 A 40.81 40.81 0 0 1  244.87 326.5 L 204.06 367.31 A 40.81 40.81 0 0 0 244.87 326.5" fill="#927295"/><rect x="244.88" y="326.5" width="40.81" height="40.81" fill="#fed7ad"/><path d="M 244.88 326.5 A 40.81 40.81 0 0 1 285.69 367.31 L 244.88 367.31" fill="#fedcba"/><rect x="285.69" y="326.5" width="40.81" height="40.81" fill="#feca93"/><path d="M 285.69 367.31 A 40.81 40.81 0 0 1  326.5 326.5 L 285.69 367.31 A 40.81 40.81 0 0 0 326.5 326.5" fill="#b9a2b7"/><rect x="326.5" y="326.5" width="40.81" height="40.81" fill="#bba4b9"/><path d="M 326.5 326.5 A 40.81 40.81 0 0 1  367.31 367.31 L 326.5 326.5 A 40.81 40.81 0 0 0 367.31 367.31" fill="#f4eaea"/><rect x="0" y="367.31" width="40.81" height="40.81" fill="#bba4b9"/><circle cx="20.405" cy="387.71500000000003" r="20.405" fill="#dfd1d8"/><rect x="40.81" y="367.31" width="40.81" height="40.81" fill="#89668d"/><path d="M 40.81 408.12 A 40.81 40.81 0 0 1  81.62 367.31 L 81.62 408.12" fill="#d8c8d1"/><rect x="81.63" y="367.31" width="40.81" height="40.81" fill="#fde9d5"/><circle cx="102.035" cy="387.71500000000003" r="20.405" fill="#feddbb"/><rect x="122.44" y="367.31" width="40.81" height="40.81" fill="#fde3c9"/><path d="M 122.44 367.31 A 40.81 40.81 0 0 1  163.25 408.12 L 122.44 367.31 A 40.81 40.81 0 0 0 163.25 408.12" fill="#fecc97"/><rect x="163.25" y="367.31" width="40.81" height="40.81" fill="#fde2c7"/><path d="M 163.25 408.12 A 40.81 40.81 0 0 1  204.06 367.31 L 204.06 408.12" fill="#b198b0"/><rect x="204.0625" y="367.3125" width="40.8125" height="40.8125" fill="#fdf6f2"/><rect x="204.06" y="367.31" width="20.41" height="20.41" fill="#bba3b8"/><path d="M 204.06 367.31 A 20.41 20.41 0 0 0 224.47 387.72 L 224.47 367.31" fill="#fedbb6"/><rect x="224.47" y="367.31" width="20.41" height="20.41" fill="#dbcbd4"/><path d="M 224.47 367.31 A 20.41 20.41 0 0 1  244.88 387.72 L 224.47 367.31 A 20.41 20.41 0 0 0 244.88 387.72" fill="#d4c3ce"/><rect x="204.06" y="387.72" width="20.41" height="20.41" fill="#a083a1"/><path d="M 204.06 408.13000000000005 A 20.41 20.41 0 0 1  224.47 387.72 L 204.06 408.13000000000005 A 20.41 20.41 0 0 0 224.47 387.72" fill="#fecf9c"/><rect x="224.47" y="387.72" width="20.41" height="20.41" fill="#decfd7"/><path d="M 224.47 408.13000000000005 A 20.41 20.41 0 0 1  244.88 387.72 L 224.47 408.13000000000005 A 20.41 20.41 0 0 0 244.88 387.72" fill="#fed2a3"/><rect x="244.88" y="367.31" width="40.81" height="40.81" fill="#fdefe2"/><path d="M 244.88 408.12 A 40.81 40.81 0 0 1  285.69 367.31 L 244.88 408.12 A 40.81 40.81 0 0 0 285.69 367.31" fill="#fec991"/><rect x="285.69" y="367.31" width="40.81" height="40.81" fill="#fec88e"/><path d="M 285.69 367.31 A 40.81 40.81 0 0 1 326.5 408.12 L 285.69 408.12" fill="#fecb94"/><rect x="326.5" y="367.31" width="40.81" height="40.81" fill="#fde8d2"/><path d="M 326.5 367.31 A 40.81 40.81 0 0 1  367.31 408.12 L 326.5 367.31 A 40.81 40.81 0 0 0 367.31 408.12" fill="#b299b1"/><rect x="0" y="408.13" width="40.81" height="40.81" fill="#fedebd"/><circle cx="20.405" cy="428.53499999999997" r="20.405" fill="#ac91ab"/><rect x="40.8125" y="408.125" width="40.8125" height="40.8125" fill="#fdf6f2"/><rect x="40.81" y="408.13" width="20.41" height="20.41" fill="#fec78b"/><circle cx="51.015" cy="418.335" r="10.205" fill="#e9dee1"/><rect x="61.22" y="408.13" width="20.41" height="20.41" fill="#fdecdd"/><circle cx="71.425" cy="418.335" r="10.205" fill="#e4d7dc"/><rect x="40.81" y="428.53" width="20.41" height="20.41" fill="#fec88e"/><path d="M 40.81 428.53 A 20.41 20.41 0 0 1 61.22 448.94 L 40.81 448.94" fill="#fde8d4"/><rect x="61.22" y="428.53" width="20.41" height="20.41" fill="#fdefe3"/><path d="M 61.22 428.53 A 20.41 20.41 0 0 1  81.63 448.94 L 61.22 428.53 A 20.41 20.41 0 0 0 81.63 448.94" fill="#7d5782"/><rect x="81.63" y="408.13" width="40.81" height="40.81" fill="#fecc95"/><path d="M 81.63 408.13 A 40.81 40.81 0 0 0 122.44 448.94 L 122.44 408.13" fill="#e7dbdf"/><rect x="122.44" y="408.13" width="40.81" height="40.81" fill="#b097af"/><circle cx="142.845" cy="428.53499999999997" r="20.405" fill="#fedcb8"/><rect x="163.25" y="408.13" width="40.81" height="40.81" fill="#fed09f"/><path d="M 163.25 448.94 A 40.81 40.81 0 0 1  204.06 408.13 L 163.25 448.94 A 40.81 40.81 0 0 0 204.06 408.13" fill="#856189"/><rect x="204.06" y="408.13" width="40.81" height="40.81" fill="#c7b2c2"/><path d="M 204.06 448.94 A 40.81 40.81 0 0 1  244.87 408.13 L 204.06 448.94 A 40.81 40.81 0 0 0 244.87 408.13" fill="#f9f1ef"/><rect x="244.88" y="408.13" width="40.81" height="40.81" fill="#d8c8d2"/><circle cx="265.28499999999997" cy="428.53499999999997" r="20.405" fill="#fde9d7"/><rect x="285.6875" y="408.125" width="40.8125" height="40.8125" fill="#fdf6f2"/><rect x="285.69" y="408.13" width="20.41" height="20.41" fill="#fde9d7"/><path d="M 285.69 428.54 A 20.41 20.41 0 0 1  306.1 408.13 L 285.69 428.54 A 20.41 20.41 0 0 0 306.1 408.13" fill="#9f81a0"/><rect x="306.09" y="408.13" width="20.41" height="20.41" fill="#fecd97"/><path d="M 306.09 428.54 A 20.41 20.41 0 0 0 326.5 408.13 L 306.09 408.13" fill="#bea7bb"/><rect x="285.69" y="428.53" width="20.41" height="20.41" fill="#f7eeec"/><path d="M 285.69 448.94 A 20.41 20.41 0 0 1  306.1 428.53 L 285.69 448.94 A 20.41 20.41 0 0 0 306.1 428.53" fill="#937396"/><rect x="306.09" y="428.53" width="20.41" height="20.41" fill="#d0becb"/><circle cx="316.29499999999996" cy="438.73499999999996" r="10.205" fill="#fbf4f1"/><rect x="326.5" y="408.13" width="40.81" height="40.81" fill="#aa8faa"/><path d="M 326.5 408.13 A 40.81 40.81 0 0 1  367.31 448.94 L 326.5 408.13 A 40.81 40.81 0 0 0 367.31 448.94" fill="#fecd98"/><rect x="0" y="448.94" width="40.81" height="40.81" fill="#fdf1e7"/><circle cx="20.405" cy="469.345" r="20.405" fill="#fed09f"/><rect x="40.81" y="448.94" width="40.81" height="40.81" fill="#fdedde"/><path d="M 40.81 448.94 A 40.81 40.81 0 0 1 81.62 489.75 L 40.81 489.75" fill="#fdebdb"/><rect x="81.63" y="448.94" width="40.81" height="40.81" fill="#fed2a4"/><path d="M 81.63 489.75 A 40.81 40.81 0 0 1  122.44 448.94 L 122.44 489.75" fill="#ab90aa"/><rect x="122.44" y="448.94" width="40.81" height="40.81" fill="#8e6c91"/><path d="M 122.44 489.75 A 40.81 40.81 0 0 1  163.25 448.94 L 122.44 489.75 A 40.81 40.81 0 0 0 163.25 448.94" fill="#fde4ca"/><rect x="163.25" y="448.94" width="40.81" height="40.81" fill="#ddced6"/><circle cx="183.655" cy="469.345" r="20.405" fill="#e2d4da"/><rect x="204.06" y="448.94" width="40.81" height="40.81" fill="#b39ab1"/><path d="M 204.06 489.75 A 40.81 40.81 0 0 1  244.87 448.94 L 204.06 489.75 A 40.81 40.81 0 0 0 244.87 448.94" fill="#fbf3f0"/><rect x="244.875" y="448.9375" width="40.8125" height="40.8125" fill="#fdf6f2"/><rect x="244.88" y="448.94" width="20.41" height="20.41" fill="#9b7c9c"/><path d="M 244.88 469.35 A 20.41 20.41 0 0 1  265.29 448.94 L 244.88 469.35 A 20.41 20.41 0 0 0 265.29 448.94" fill="#fcf4f1"/><rect x="265.28" y="448.94" width="20.41" height="20.41" fill="#fed2a3"/><circle cx="275.48499999999996" cy="459.145" r="10.205" fill="#e0d2d9"/><rect x="244.88" y="469.34" width="20.41" height="20.41" fill="#fdedde"/><path d="M 244.88 469.34 A 20.41 20.41 0 0 1  265.29 489.75 L 244.88 469.34 A 20.41 20.41 0 0 0 265.29 489.75" fill="#bfa9bc"/><rect x="265.28" y="469.34" width="20.41" height="20.41" fill="#d3c2cd"/><path d="M 265.28 489.75 A 20.41 20.41 0 0 1  285.69 469.34 L 265.28 489.75 A 20.41 20.41 0 0 0 285.69 469.34" fill="#fed1a2"/><rect x="285.6875" y="448.9375" width="40.8125" height="40.8125" fill="#fdf6f2"/><rect x="285.69" y="448.94" width="20.41" height="20.41" fill="#fdf6f1"/><path d="M 285.69 448.94 A 20.41 20.41 0 0 1  306.1 469.35 L 285.69 448.94 A 20.41 20.41 0 0 0 306.1 469.35" fill="#fecb93"/><rect x="306.09" y="448.94" width="20.41" height="20.41" fill="#87638b"/><path d="M 306.09 469.35 A 20.41 20.41 0 0 1  326.5 448.94 L 326.5 469.35" fill="#fec78c"/><rect x="285.69" y="469.34" width="20.41" height="20.41" fill="#a184a2"/><circle cx="295.895" cy="479.54499999999996" r="10.205" fill="#8f6d91"/><rect x="306.09" y="469.34" width="20.41" height="20.41" fill="#fdeee1"/><path d="M 306.09 469.34 A 20.41 20.41 0 0 1  326.5 489.75 L 306.09 469.34 A 20.41 20.41 0 0 0 326.5 489.75" fill="#ebdfe2"/><rect x="326.5" y="448.9375" width="40.8125" height="40.8125" fill="#fdf6f2"/><rect x="326.5" y="448.94" width="20.41" height="20.41" fill="#fed1a1"/><path d="M 326.5 448.94 A 20.41 20.41 0 0 1 346.91 469.35 L 326.5 469.35" fill="#aa8ea9"/><rect x="346.91" y="448.94" width="20.41" height="20.41" fill="#fed09f"/><circle cx="357.115" cy="459.145" r="10.205" fill="#a285a2"/><rect x="326.5" y="469.34" width="20.41" height="20.41" fill="#fec88d"/><path d="M 326.5 489.75 A 20.41 20.41 0 0 1  346.91 469.34 L 326.5 489.75 A 20.41 20.41 0 0 0 346.91 469.34" fill="#b59cb3"/><rect x="346.91" y="469.34" width="20.41" height="20.41" fill="#977798"/><circle cx="357.115" cy="479.54499999999996" r="10.205" fill="#8a678d"/><rect x="0" y="489.75" width="40.8125" height="40.8125" fill="#fdf6f2"/><rect x="0" y="489.75" width="20.41" height="20.41" fill="#fecc96"/><path d="M 0 489.75 A 20.41 20.41 0 0 1  20.41 510.16 L 0 489.75 A 20.41 20.41 0 0 0 20.41 510.16" fill="#fdeee0"/><rect x="20.41" y="489.75" width="20.41" height="20.41" fill="#b096ae"/><path d="M 20.41 510.16 A 20.41 20.41 0 0 0 40.82 489.75 L 20.41 489.75" fill="#fed6ac"/><rect x="0" y="510.16" width="20.41" height="20.41" fill="#fecb94"/><path d="M 0 530.57 A 20.41 20.41 0 0 1  20.41 510.16 L 0 530.57 A 20.41 20.41 0 0 0 20.41 510.16" fill="#a88ca8"/><rect x="20.41" y="510.16" width="20.41" height="20.41" fill="#fdecdc"/><path d="M 20.41 510.16 A 20.41 20.41 0 0 1 40.82 530.57 L 20.41 530.57" fill="#f0e6e7"/><rect x="40.81" y="489.75" width="40.81" height="40.81" fill="#fedab5"/><path d="M 40.81 489.75 A 40.81 40.81 0 0 1  81.62 530.56 L 40.81 489.75 A 40.81 40.81 0 0 0 81.62 530.56" fill="#9c7d9d"/><rect x="81.625" y="489.75" width="40.8125" height="40.8125" fill="#fdf6f2"/><rect x="81.63" y="489.75" width="20.41" height="20.41" fill="#fecd97"/><path d="M 81.63 510.16 A 20.41 20.41 0 0 1  102.03999999999999 489.75 L 102.03999999999999 510.16" fill="#a488a4"/><rect x="102.03" y="489.75" width="20.41" height="20.41" fill="#ded0d7"/><circle cx="112.235" cy="499.955" r="10.205" fill="#a68aa6"/><rect x="81.63" y="510.16" width="20.41" height="20.41" fill="#fdf3eb"/><circle cx="91.835" cy="520.365" r="10.205" fill="#f9f1ee"/><rect x="102.03" y="510.16" width="20.41" height="20.41" fill="#feca93"/><path d="M 102.03 510.16 A 20.41 20.41 0 0 1 122.44 530.57 L 102.03 530.57" fill="#cebcc9"/><rect x="122.4375" y="489.75" width="40.8125" height="40.8125" fill="#fdf6f2"/><rect x="122.44" y="489.75" width="20.41" height="20.41" fill="#b8a0b5"/><path d="M 122.44 489.75 A 20.41 20.41 0 0 1  142.85 510.16 L 122.44 489.75 A 20.41 20.41 0 0 0 142.85 510.16" fill="#fdead7"/><rect x="142.84" y="489.75" width="20.41" height="20.41" fill="#e1d3da"/><path d="M 142.84 510.16 A 20.41 20.41 0 0 0 163.25 489.75 L 142.84 489.75" fill="#fdeee1"/><rect x="122.44" y="510.16" width="20.41" height="20.41" fill="#ae94ad"/><path d="M 122.44 530.57 A 20.41 20.41 0 0 1  142.85 510.16 L 142.85 530.57" fill="#dbccd4"/><rect x="142.84" y="510.16" width="20.41" height="20.41" fill="#fdf4ee"/><circle cx="153.04500000000002" cy="520.365" r="10.205" fill="#faf2ef"/><rect x="163.25" y="489.75" width="40.81" height="40.81" fill="#fdedde"/><path d="M 163.25 489.75 A 40.81 40.81 0 0 1  204.06 530.56 L 163.25 489.75 A 40.81 40.81 0 0 0 204.06 530.56" fill="#fecb94"/><rect x="204.06" y="489.75" width="40.81" height="40.81" fill="#fde7d2"/><path d="M 204.06 489.75 A 40.81 40.81 0 0 1  244.87 530.56 L 204.06 489.75 A 40.81 40.81 0 0 0 244.87 530.56" fill="#fec78a"/><rect x="244.88" y="489.75" width="40.81" height="40.81" fill="#fec990"/><path d="M 244.88 489.75 A 40.81 40.81 0 0 1  285.69 530.56 L 244.88 489.75 A 40.81 40.81 0 0 0 285.69 530.56" fill="#fdf1e8"/><rect x="285.69" y="489.75" width="40.81" height="40.81" fill="#e2d4da"/><circle cx="306.095" cy="510.155" r="20.405" fill="#9a7b9b"/><rect x="326.5" y="489.75" width="40.8125" height="40.8125" fill="#fdf6f2"/><rect x="326.5" y="489.75" width="20.41" height="20.41" fill="#c7b2c2"/><path d="M 326.5 510.16 A 20.41 20.41 0 0 1  346.91 489.75 L 326.5 510.16 A 20.41 20.41 0 0 0 346.91 489.75" fill="#cebcc9"/><rect x="346.91" y="489.75" width="20.41" height="20.41" fill="#e0d2d9"/><circle cx="357.115" cy="499.955" r="10.205" fill="#c5b1c1"/><rect x="326.5" y="510.16" width="20.41" height="20.41" fill="#856089"/><circle cx="336.705" cy="520.365" r="10.205" fill="#8e6c91"/><rect x="346.91" y="510.16" width="20.41" height="20.41" fill="#d4c3ce"/><path d="M 346.91 510.16 A 20.41 20.41 0 0 1  367.32000000000005 530.57 L 346.91 510.16 A 20.41 20.41 0 0 0 367.32000000000005 530.57" fill="#fde2c5"/><rect x="0" y="530.56" width="40.81" height="40.81" fill="#fde9d5"/><path d="M 0 530.56 A 40.81 40.81 0 0 1  40.81 571.3699999999999 L 0 530.56 A 40.81 40.81 0 0 0 40.81 571.3699999999999" fill="#7f5a84"/><rect x="40.81" y="530.56" width="40.81" height="40.81" fill="#fdecdc"/><circle cx="61.215" cy="550.9649999999999" r="20.405" fill="#fecd99"/><rect x="81.63" y="530.56" width="40.81" height="40.81" fill="#fdecdd"/><path d="M 81.63 571.3699999999999 A 40.81 40.81 0 0 1  122.44 530.56 L 81.63 571.3699999999999 A 40.81 40.81 0 0 0 122.44 530.56" fill="#fed8af"/><rect x="122.44" y="530.56" width="40.81" height="40.81" fill="#fdf1e7"/><path d="M 122.44 571.3699999999999 A 40.81 40.81 0 0 1  163.25 530.56 L 163.25 571.3699999999999" fill="#fecc95"/><rect x="163.25" y="530.56" width="40.81" height="40.81" fill="#dfd0d7"/><path d="M 163.25 530.56 A 40.81 40.81 0 0 1  204.06 571.3699999999999 L 163.25 530.56 A 40.81 40.81 0 0 0 204.06 571.3699999999999" fill="#fde2c6"/><rect x="204.06" y="530.56" width="40.81" height="40.81" fill="#fdf0e6"/><path d="M 204.06 530.56 A 40.81 40.81 0 0 1  244.87 571.3699999999999 L 204.06 530.56 A 40.81 40.81 0 0 0 244.87 571.3699999999999" fill="#774f7d"/><rect x="244.88" y="530.56" width="40.81" height="40.81" fill="#846088"/><circle cx="265.28499999999997" cy="550.9649999999999" r="20.405" fill="#a184a1"/><rect x="285.69" y="530.56" width="40.81" height="40.81" fill="#d7c6d0"/><circle cx="306.095" cy="550.9649999999999" r="20.405" fill="#78507d"/><rect x="326.5" y="530.56" width="40.81" height="40.81" fill="#bca5b9"/><path d="M 326.5 571.3699999999999 A 40.81 40.81 0 0 1  367.31 530.56 L 367.31 571.3699999999999" fill="#a488a4"/><rect x="0" y="571.38" width="40.81" height="40.81" fill="#fbf3f0"/><path d="M 0 571.38 A 40.81 40.81 0 0 1 40.81 612.19 L 0 612.19" fill="#fed7ae"/><rect x="40.81" y="571.38" width="40.81" height="40.81" fill="#ccb9c7"/><circle cx="61.215" cy="591.785" r="20.405" fill="#fdeee1"/><rect x="81.63" y="571.38" width="40.81" height="40.81" fill="#fecf9d"/><path d="M 81.63 612.19 A 40.81 40.81 0 0 1  122.44 571.38 L 81.63 612.19 A 40.81 40.81 0 0 0 122.44 571.38" fill="#a78ba7"/><rect x="122.44" y="571.38" width="40.81" height="40.81" fill="#79527e"/><path d="M 122.44 612.19 A 40.81 40.81 0 0 1  163.25 571.38 L 122.44 612.19 A 40.81 40.81 0 0 0 163.25 571.38" fill="#fec68a"/><rect x="163.25" y="571.38" width="40.81" height="40.81" fill="#fed8b1"/><circle cx="183.655" cy="591.785" r="20.405" fill="#feca91"/><rect x="204.06" y="571.38" width="40.81" height="40.81" fill="#bba4b9"/><circle cx="224.465" cy="591.785" r="20.405" fill="#fece99"/><rect x="244.88" y="571.38" width="40.81" height="40.81" fill="#927194"/><circle cx="265.28499999999997" cy="591.785" r="20.405" fill="#fdf2e9"/><rect x="285.6875" y="571.375" width="40.8125" height="40.8125" fill="#fdf6f2"/><rect x="285.69" y="571.38" width="20.41" height="20.41" fill="#cebbc9"/><path d="M 285.69 571.38 A 20.41 20.41 0 0 1  306.1 591.79 L 285.69 571.38 A 20.41 20.41 0 0 0 306.1 591.79" fill="#fecb93"/><rect x="306.09" y="571.38" width="20.41" height="20.41" fill="#fde4ca"/><path d="M 306.09 571.38 A 20.41 20.41 0 0 1  326.5 591.79 L 306.09 571.38 A 20.41 20.41 0 0 0 326.5 591.79" fill="#fdf4ed"/><rect x="285.69" y="591.78" width="20.41" height="20.41" fill="#7d5682"/><circle cx="295.895" cy="601.985" r="10.205" fill="#c3adbf"/><rect x="306.09" y="591.78" width="20.41" height="20.41" fill="#fdf2ea"/><path d="M 306.09 591.78 A 20.41 20.41 0 0 1  326.5 612.1899999999999 L 306.09 591.78 A 20.41 20.41 0 0 0 326.5 612.1899999999999" fill="#fdead8"/><rect x="326.5" y="571.38" width="40.81" height="40.81" fill="#aa8fa9"/><path d="M 326.5 571.38 A 40.81 40.81 0 0 1 367.31 612.19 L 326.5 612.19" fill="#fed4a8"/><rect x="0" y="612.19" width="40.81" height="40.81" fill="#a588a5"/><circle cx="20.405" cy="632.595" r="20.405" fill="#feddbb"/><rect x="40.8125" y="612.1875" width="40.8125" height="40.8125" fill="#fdf6f2"/><rect x="40.81" y="612.19" width="20.41" height="20.41" fill="#9e809f"/><path d="M 40.81 612.19 A 20.41 20.41 0 0 1  61.22 632.6 L 40.81 612.19 A 20.41 20.41 0 0 0 61.22 632.6" fill="#cfbcc9"/><rect x="61.22" y="612.19" width="20.41" height="20.41" fill="#eee4e5"/><circle cx="71.425" cy="622.3950000000001" r="10.205" fill="#7c5681"/><rect x="40.81" y="632.59" width="20.41" height="20.41" fill="#fed3a5"/><path d="M 40.81 653 A 20.41 20.41 0 0 1  61.22 632.59 L 40.81 653 A 20.41 20.41 0 0 0 61.22 632.59" fill="#bea8bb"/><rect x="61.22" y="632.59" width="20.41" height="20.41" fill="#987899"/><path d="M 61.22 653 A 20.41 20.41 0 0 1  81.63 632.59 L 61.22 653 A 20.41 20.41 0 0 0 81.63 632.59" fill="#fed6ac"/><rect x="81.63" y="612.19" width="40.81" height="40.81" fill="#967698"/><circle cx="102.035" cy="632.595" r="20.405" fill="#fed3a4"/><rect x="122.4375" y="612.1875" width="40.8125" height="40.8125" fill="#fdf6f2"/><rect x="122.44" y="612.19" width="20.41" height="20.41" fill="#fedbb7"/><circle cx="132.645" cy="622.3950000000001" r="10.205" fill="#a88ca8"/><rect x="142.84" y="612.19" width="20.41" height="20.41" fill="#feca93"/><path d="M 142.84 612.19 A 20.41 20.41 0 0 1  163.25 632.6 L 142.84 612.19 A 20.41 20.41 0 0 0 163.25 632.6" fill="#fdf5f1"/><rect x="122.44" y="632.59" width="20.41" height="20.41" fill="#fed2a2"/><path d="M 122.44 653 A 20.41 20.41 0 0 1  142.85 632.59 L 122.44 653 A 20.41 20.41 0 0 0 142.85 632.59" fill="#feddbc"/><rect x="142.84" y="632.59" width="20.41" height="20.41" fill="#fec88d"/><path d="M 142.84 632.59 A 20.41 20.41 0 0 1 163.25 653 L 142.84 653" fill="#fdf1e6"/><rect x="163.25" y="612.19" width="40.81" height="40.81" fill="#fdecdc"/><path d="M 163.25 612.19 A 40.81 40.81 0 0 1  204.06 653 L 163.25 612.19 A 40.81 40.81 0 0 0 204.06 653" fill="#fed9b2"/><rect x="204.06" y="612.19" width="40.81" height="40.81" fill="#ad93ac"/><circle cx="224.465" cy="632.595" r="20.405" fill="#78517e"/><rect x="244.88" y="612.19" width="40.81" height="40.81" fill="#fed8b1"/><path d="M 244.88 612.19 A 40.81 40.81 0 0 1  285.69 653 L 244.88 612.19 A 40.81 40.81 0 0 0 285.69 653" fill="#bea8bb"/><rect x="285.6875" y="612.1875" width="40.8125" height="40.8125" fill="#fdf6f2"/><rect x="285.69" y="612.19" width="20.41" height="20.41" fill="#fecf9d"/><path d="M 285.69 612.19 A 20.41 20.41 0 0 0 306.1 632.6 L 306.1 612.19" fill="#89658c"/><rect x="306.09" y="612.19" width="20.41" height="20.41" fill="#dcccd5"/><circle cx="316.29499999999996" cy="622.3950000000001" r="10.205" fill="#fde6cf"/><rect x="285.69" y="632.59" width="20.41" height="20.41" fill="#fdefe2"/><circle cx="295.895" cy="642.7950000000001" r="10.205" fill="#fde4cc"/><rect x="306.09" y="632.59" width="20.41" height="20.41" fill="#e5d8dd"/><path d="M 306.09 632.59 A 20.41 20.41 0 0 1  326.5 653 L 306.09 632.59 A 20.41 20.41 0 0 0 326.5 653" fill="#a589a5"/><rect x="326.5" y="612.1875" width="40.8125" height="40.8125" fill="#fdf6f2"/><rect x="326.5" y="612.19" width="20.41" height="20.41" fill="#a78ba7"/><path d="M 326.5 632.6 A 20.41 20.41 0 0 0 346.91 612.19 L 326.5 612.19" fill="#8d6b90"/><rect x="346.91" y="612.19" width="20.41" height="20.41" fill="#fed3a5"/><path d="M 346.91 632.6 A 20.41 20.41 0 0 1  367.32000000000005 612.19 L 346.91 632.6 A 20.41 20.41 0 0 0 367.32000000000005 612.19" fill="#fed5a9"/><rect x="326.5" y="632.59" width="20.41" height="20.41" fill="#f4eaea"/><path d="M 326.5 632.59 A 20.41 20.41 0 0 1  346.91 653 L 326.5 632.59 A 20.41 20.41 0 0 0 346.91 653" fill="#fed09f"/><rect x="346.91" y="632.59" width="20.41" height="20.41" fill="#f4ebeb"/><path d="M 346.91 653 A 20.41 20.41 0 0 1  367.32000000000005 632.59 L 367.32000000000005 653" fill="#decfd7"/></g></svg>