<svg width="53" height="57" viewBox="0 0 53 57" fill="none" xmlns="http://www.w3.org/2000/svg">
<path d="M47.206 14.5297H40.5586C41.492 12.4054 41.738 9.96656 41.2525 7.65164C40.7669 5.33672 39.5817 3.2976 37.9098 1.9009C36.2379 0.504204 34.1891 -0.158451 32.1317 0.0320791C30.0743 0.222609 28.1433 1.25382 26.6858 2.94032C26.4424 3.22716 26.2171 3.53365 26.0115 3.85747C25.8058 3.53365 25.5805 3.22716 25.3371 2.94032C23.8796 1.25382 21.9486 0.222609 19.8912 0.0320791C17.8338 -0.158451 15.785 0.504204 14.1131 1.9009C12.4412 3.2976 11.256 5.33672 10.7704 7.65164C10.2849 9.96656 10.5309 12.4054 11.4643 14.5297H4.81694C3.54136 14.5371 2.31982 15.125 1.41784 16.1659C0.51586 17.2067 0.00633054 18.6163 0 20.0882V28.9818C0.00427311 30.2618 0.389362 31.5013 1.09083 32.4929C1.79231 33.4845 2.76761 34.168 3.85355 34.4291V51.2157C3.85988 52.6876 4.36941 54.0972 5.27139 55.1381C6.17337 56.1789 7.39491 56.7669 8.67049 56.7742H43.3524C44.628 56.7669 45.8495 56.1789 46.7515 55.1381C47.6535 54.0972 48.163 52.6876 48.1694 51.2157V34.4291C49.2553 34.168 50.2306 33.4845 50.9321 32.4929C51.6336 31.5013 52.0186 30.2618 52.0229 28.9818V20.0882C52.0166 18.6163 51.5071 17.2067 50.6051 16.1659C49.7031 15.125 48.4816 14.5371 47.206 14.5297ZM46.2426 27.8701H28.9016V21.1999H46.2426V27.8701ZM30.7802 7.63723C31.0493 7.32779 31.3686 7.08261 31.7199 6.91569C32.0712 6.74878 32.4475 6.66342 32.8274 6.6645C33.4001 6.66288 33.9602 6.85759 34.4368 7.22395C34.9134 7.5903 35.285 8.11177 35.5043 8.72219C35.7236 9.33261 35.7809 10.0045 35.6688 10.6525C35.5567 11.3005 35.2803 11.8955 34.8746 12.3619C34.0798 13.2791 31.6232 13.9739 29.0702 14.3074C29.4074 11.0279 30.1059 8.41542 30.7802 7.63723ZM17.1483 7.63723C17.6967 7.02263 18.431 6.67883 19.1955 6.67883C19.96 6.67883 20.6943 7.02263 21.2427 7.63723C22.0375 8.55438 22.6396 11.3892 22.9286 14.3352C20.0866 13.9461 17.8227 13.1401 17.1483 12.3619C16.6157 11.7291 16.3178 10.8817 16.3178 9.99959C16.3178 9.11744 16.6157 8.27003 17.1483 7.63723ZM5.78032 21.1999H23.1213V27.8701H5.78032V21.1999ZM9.63387 34.5403H23.1213V50.104H9.63387V34.5403ZM28.9016 50.104V34.5403H42.389V50.104H28.9016Z" fill="black"/>
</svg>
