<svg width="42" height="51" viewBox="0 0 42 51" fill="none" xmlns="http://www.w3.org/2000/svg">
<path d="M0 27.914C0 33.9712 2.20314 39.7803 6.12474 44.0634C10.0463 48.3465 15.3652 50.7527 20.9112 50.7527C20.9112 44.6955 18.708 38.8864 14.7864 34.6033C10.8648 30.3202 5.54599 27.914 0 27.914ZM5.66925 34.1058C10.1071 35.9075 13.5923 39.714 15.2419 44.5608C13.0514 43.6733 11.0621 42.2797 9.40997 40.4753C7.75786 38.6709 6.48189 36.4983 5.66925 34.1058ZM20.9112 50.7527C26.4572 50.7527 31.776 48.3465 35.6976 44.0634C39.6192 39.7803 41.8223 33.9712 41.8223 27.914C36.2764 27.914 30.9575 30.3202 27.0359 34.6033C23.1143 38.8864 20.9112 44.6955 20.9112 50.7527ZM26.534 44.5862C27.3301 42.1625 28.6076 39.9614 30.2747 38.1406C31.9418 36.3198 33.9572 34.9246 36.1763 34.055C35.3587 36.4655 34.0738 38.6545 32.4095 40.4722C30.7453 42.2898 28.741 43.6932 26.534 44.5862ZM20.9112 30.4516C24.6085 30.4516 28.1544 28.8475 30.7688 25.9921C33.3832 23.1367 34.852 19.2639 34.852 15.2258V2.53763C33.1371 2.52177 31.4348 2.85747 29.8333 3.52731C28.5554 4.11097 27.4169 4.97376 26.4643 6.06494L20.9112 0L15.3581 6.06494C14.4055 4.97376 13.267 4.11097 11.9891 3.52731C10.3876 2.85747 8.68524 2.52177 6.97039 2.53763V15.2258C6.97039 19.2639 8.43915 23.1367 11.0536 25.9921C13.668 28.8475 17.2139 30.4516 20.9112 30.4516ZM11.6173 9.16086L15.2652 13.348L20.9112 7.1815L26.5572 13.348L30.205 9.16086V15.2258C30.205 17.9179 29.2259 20.4997 27.4829 22.4033C25.74 24.3069 23.3761 25.3763 20.9112 25.3763C18.4463 25.3763 16.0824 24.3069 14.3394 22.4033C12.5965 20.4997 11.6173 17.9179 11.6173 15.2258V9.16086Z" fill="black"/>
</svg>
