<svg width="47" height="60" viewBox="0 0 47 60" fill="none" xmlns="http://www.w3.org/2000/svg">
<path d="M46.4671 22.1868L44.7366 22.6313C44.4814 22.6955 38.8397 24.1717 34.3611 27.6352L35.2205 23.4146C38.5209 23.5467 42.0037 20.8135 43.5774 16.5224C45.399 11.5606 43.4423 6.24208 43.357 6.0163L42.7343 4.36072L42.1608 6.06857C42.1569 6.08006 42.0334 6.41969 41.7376 6.9192C41.5102 5.77973 41.2233 4.65519 40.8782 3.55104L40.6352 2.81183L39.9847 3.18564C39.9236 3.22194 38.7207 3.92054 37.1936 5.07698C37.2425 4.76202 37.32 4.45308 37.425 4.15469L38.0917 2.47544L36.5703 3.26458C36.365 3.37029 31.5151 5.93116 29.693 10.8936C29.6606 10.9809 29.6376 11.0699 29.6077 11.1571C29.5899 10.9622 29.5758 10.7685 29.5492 10.5712C28.8321 5.34764 24.6437 1.89441 24.4662 1.7508L23.1492 0.681561L23.4418 2.4508C23.4434 2.46276 23.4959 2.82057 23.4682 3.40694C22.2242 1.97659 21.2012 1.05932 21.148 1.01323L20.5908 0.517251L20.1953 1.19332C20.1585 1.25675 19.4323 2.51172 18.6347 4.33465C18.5319 4.03986 18.4561 3.73482 18.4085 3.42395L18.2097 1.6272L17.2458 3.13324C17.1325 3.30897 14.8552 6.93401 14.6885 11.2779C11.6109 7.27163 6.3676 6.65869 6.1453 6.63621L4.49678 6.45626L5.58102 7.79575C5.58747 7.80485 5.79985 8.07932 6.05238 8.59325C5.01699 8.2799 3.9662 8.02976 2.90497 7.84403L2.18687 7.73377L2.15879 8.52373C2.15563 8.59927 2.11252 10.0659 2.27175 12.055C2.04356 11.8616 1.83398 11.6438 1.64622 11.4047L0.631026 9.99056L0.497835 11.8023C0.478461 12.0473 0.0884369 17.8444 3.16327 21.8815C4.91416 24.1801 7.31746 25.6163 9.75976 25.827C11.2071 25.9503 12.5767 25.6013 13.7322 24.8624L15.8486 27.9184C12.3999 26.6537 9.76124 26.461 8.08592 26.5443C7.06634 26.5947 6.50914 26.7468 6.48658 26.7537L5.52853 27.0187L10.2085 30.3269L8.70661 30.4052C8.70661 30.4052 19.1964 37.8549 20.9686 47.4605L18.7521 47.5779L18.8408 52.4904L20.6426 52.3957C19.7935 54.639 18.3143 57.0792 18.3143 57.0792L21.7571 56.9077L21.8106 59.5088L28.2851 59.1871L28.231 56.5868L31.6812 56.4151C31.6812 56.4151 30.1136 54.111 29.1856 51.9474L30.9904 51.852L30.9011 46.9389L28.682 47.055C30.0998 37.2799 40.3002 28.7437 40.3002 28.7437L39.207 28.8022L46.4671 22.1868ZM39.8995 4.82269C40.2181 5.96728 40.4779 7.13017 40.6776 8.30599C40.0282 8.99078 39.1239 9.71037 37.8904 10.2813C37.3408 8.9901 37.1323 7.82378 37.0879 6.8623C38.209 5.95047 39.2557 5.23563 39.8995 4.82269ZM42.5873 8.02108C43.0172 9.82996 43.4836 13.0518 42.3888 16.0337C40.7747 20.4285 36.9364 22.9786 33.8339 21.7198C33.7097 21.6695 33.589 21.6097 33.4725 21.541L33.4713 21.541C31.9453 20.6591 30.9778 18.4502 31.2708 16.5165C31.5822 14.4579 33.2307 12.9946 35.9153 12.3961C39.6541 11.5563 41.6301 9.46947 42.5873 8.02108ZM31.8248 22.1673L30.3512 26.3352C30.5312 24.8575 30.9384 23.3207 31.4321 21.8561C31.5587 21.9675 31.6923 22.0654 31.8248 22.1673ZM30.8846 11.3815C31.9771 8.40497 34.3884 6.34079 35.8661 5.2983C35.711 6.5882 35.7523 8.52626 36.6714 10.7596C36.3581 10.8593 36.0317 10.9508 35.6826 11.0284C31.9615 11.8616 30.642 13.9628 30.1811 15.5316C30.1549 14.1109 30.3942 12.6992 30.8846 11.3815ZM29.2902 18.2811C27.8526 20.2265 26.4852 22.838 25.7606 26.2401L24.8259 21.3383C26.683 20.5367 28.1435 18.7734 28.9561 16.5254C29.0225 17.1283 29.1272 17.7185 29.2902 18.2811ZM25.472 29.331L23.4783 29.4302L22.8361 21.8351C23.019 21.8176 23.2007 21.8029 23.3812 21.7688L23.5474 21.728C23.5768 21.7229 23.6087 21.7217 23.6375 21.7173C23.7617 21.6934 23.8799 21.6529 24.0014 21.6211L25.472 29.331ZM24.7246 3.87906C25.9426 5.18356 27.8495 7.66865 28.2801 10.8077C28.915 15.4343 26.7444 19.7122 23.4448 20.3448C23.3125 20.3692 23.1789 20.3848 23.0449 20.3917C21.2983 20.479 19.4252 19.1293 18.78 17.323C18.0941 15.4008 18.8549 13.2489 20.9235 11.2661C23.8045 8.4991 24.5614 5.6358 24.7246 3.87906ZM22.2367 24.9288C21.967 23.8905 21.718 22.8461 21.49 21.7961C21.6619 21.8231 21.8349 21.8227 22.0075 21.8323C21.9964 21.8314 21.9854 21.8345 21.9756 21.8335L22.2367 24.9288ZM20.8857 2.63215C21.4242 3.15952 22.2885 4.0593 23.1876 5.16869C22.9402 6.1096 22.4827 7.21846 21.6704 8.38116C20.5884 7.58222 19.8628 6.70535 19.3755 5.9111C19.8244 4.78959 20.3285 3.69503 20.8857 2.63215ZM17.5802 5.25202C18.0428 6.4343 18.9828 8.06145 20.8259 9.45696C20.5977 9.71502 20.3547 9.97364 20.0864 10.2299C17.2184 12.9817 17.042 15.4945 17.3708 17.0822C17.2022 16.7914 17.0487 16.4887 16.9064 16.1743C16.7469 15.3486 16.499 14.546 16.1676 13.7828C16.1285 13.5767 16.0816 13.3755 16.0534 13.1636C15.6236 10.0292 16.7719 6.9492 17.5802 5.25202ZM17.0814 19.0338C17.4634 19.5163 17.8863 19.9458 18.3407 20.3248C18.0958 21.6344 17.9203 22.9581 17.8149 24.2895L16.0844 22.3846C16.6492 21.3653 16.9904 20.2188 17.0814 19.0338ZM3.43541 9.36486C4.51557 9.59424 5.58328 9.88784 6.6337 10.2444C6.85769 11.1812 6.9789 12.3727 6.81551 13.8118C5.4976 13.7317 4.4527 13.3886 3.65638 12.9836C3.52145 11.7827 3.44768 10.5746 3.43541 9.36486ZM4.16092 20.9776C2.31627 18.5556 1.87236 15.3049 1.77971 13.4168C2.73945 14.1642 4.3208 15.0261 6.58312 15.19C6.50719 15.5352 6.41489 15.8883 6.30271 16.2549C5.0898 20.177 6.11528 22.407 7.14612 23.5749C6.04212 22.977 5.01551 22.0999 4.16092 20.9776ZM13.6505 23.2435L13.6493 23.2449C12.1666 24.2835 9.89985 24.1759 8.49016 22.9986C6.9907 21.7459 6.64486 19.4994 7.51913 16.6698C8.73387 12.7276 8.05094 9.88156 7.36834 8.29828C9.04329 8.73088 11.8717 9.78692 13.7207 12.2121C14.2119 12.8567 14.6151 13.5426 14.9358 14.2469C15.1113 15.1101 15.3668 15.9329 15.6992 16.6968C16.1272 19.1479 15.5621 21.5329 13.976 22.9845C13.8724 23.0771 13.765 23.1645 13.6505 23.2435ZM11.3748 30.0302L7.78587 27.4938C9.50035 27.3637 12.665 27.5276 16.9075 29.3342L17.7941 29.7132L11.3748 30.0302ZM18.1628 29.6942L14.4519 24.3365C14.4969 24.2994 14.545 24.2656 14.5888 24.2273L14.7141 24.1025C14.738 24.0803 14.7677 24.0652 14.7898 24.0423C15.0817 23.7752 15.337 23.4761 15.5746 23.1616L18.5607 26.4531L18.6067 25.3728C18.6727 23.7925 18.8748 22.2533 19.1176 20.8754C19.5729 21.1701 20.0583 21.4061 20.5641 21.5787C21.1222 24.2251 21.8116 26.837 22.6292 29.4028L22.6517 29.4721L18.1628 29.6942ZM27.4078 58.3012L22.6455 58.5381L22.615 56.8653L27.3786 56.6297L27.4078 58.3012ZM30.0626 47.9123L30.1181 50.9685L19.6787 51.5163L19.6237 48.4607L30.0626 47.9123ZM26.1689 29.2959L26.2228 28.7786C26.6622 24.6296 28.0861 21.5254 29.646 19.2804C29.927 19.964 30.3014 20.5977 30.7565 21.1602C29.8585 23.7244 29.1965 26.5702 29.4471 29.0391L29.4563 29.1336L26.1689 29.2959ZM30.2866 29.0928L32.561 22.6573C32.742 22.7567 32.9259 22.85 33.1173 22.9291L33.2767 22.9859C33.3054 22.9968 33.3318 23.0159 33.3611 23.0275C33.6889 23.156 34.0264 23.2529 34.3699 23.3172L33.2224 28.9475L30.2866 29.0928ZM34.2173 28.8967C37.1232 26.4504 40.8128 24.9076 43.0131 24.1348L37.9921 28.709L34.2173 28.8967Z" fill="black"/>
</svg>
