<?xml version="1.0" encoding="utf-8"?>
<!-- Generator: Adobe Illustrator 19.0.0, SVG Export Plug-In . SVG Version: 6.00 Build 0)  -->
<svg version="1.1" id="Layer_1" xmlns="http://www.w3.org/2000/svg" xmlns:xlink="http://www.w3.org/1999/xlink" x="0px" y="0px"
	 viewBox="0 0 500 500" style="enable-background:new 0 0 500 500;" xml:space="preserve">
<style type="text/css">
	.st0{fill:url(#XMLID_2_);}
	.st1{fill:url(#XMLID_3_);}
	.st2{fill:url(#XMLID_4_);}
	.st3{fill:url(#XMLID_5_);}
	.st4{fill:url(#XMLID_6_);}
	.st5{fill:url(#XMLID_7_);}
	.st6{fill:url(#XMLID_8_);}
	.st7{fill:url(#XMLID_9_);}
	.st8{fill:url(#XMLID_10_);}
	.st9{fill:url(#XMLID_11_);}
	.st10{fill:url(#XMLID_12_);}
	.st11{fill:url(#XMLID_13_);}
	.st12{fill:url(#XMLID_14_);}
	.st13{fill:url(#XMLID_15_);}
	.st14{fill:url(#XMLID_16_);}
	.st15{fill:url(#XMLID_17_);}
	.st16{fill:url(#XMLID_18_);}
	.st17{fill:url(#XMLID_19_);}
	.st18{fill:url(#XMLID_20_);}
	.st19{fill:url(#XMLID_21_);}
	.st20{fill:url(#XMLID_22_);}
	.st21{fill:url(#XMLID_23_);}
	.st22{fill:url(#XMLID_24_);}
	.st23{fill:url(#XMLID_25_);}
	.st24{fill:url(#XMLID_26_);}
</style>
<g id="XMLID_257_">
	<g id="XMLID_258_">
		<g id="XMLID_259_">
			<linearGradient id="XMLID_2_" gradientUnits="userSpaceOnUse" x1="219.9934" y1="203.33" x2="280.0066" y2="203.33">
				<stop  offset="0" style="stop-color:#EDC5CA"/>
				<stop  offset="4.967931e-002" style="stop-color:#F2D5D7"/>
				<stop  offset="0.1398" style="stop-color:#FEF0EC"/>
				<stop  offset="0.2581" style="stop-color:#FCD1C6"/>
				<stop  offset="0.3602" style="stop-color:#FEF0EC"/>
				<stop  offset="0.4892" style="stop-color:#EDD5D5"/>
				<stop  offset="0.7204" style="stop-color:#FDE0D4"/>
				<stop  offset="0.8387" style="stop-color:#FEF0EC"/>
				<stop  offset="1" style="stop-color:#EDCFD6"/>
			</linearGradient>
			<path id="XMLID_260_" class="st0" d="M271.2,179c-0.9-0.9-1.9-1.8-2.9-2.5c-0.2,1-0.3,2.1-0.5,3.5c5.6,5,9.2,12.2,9.2,20.3
				c0,13.1-9.4,24.1-21.8,26.5c-0.3,0.1-0.6,0.1-1,0.2c-1.4,0.2-2.8,0.3-4.3,0.3c-1.1,0-2.1-0.1-3.1-0.2c-0.7-0.1-1.4-0.2-2.1-0.3
				c-12.4-2.5-21.8-13.4-21.8-26.5c0-8.1,3.6-15.3,9.2-20.3c-0.1-1.3-0.3-2.5-0.5-3.5c-1,0.8-2,1.6-2.9,2.6
				c-5.7,5.7-8.8,13.2-8.8,21.2c0,8,3.1,15.6,8.8,21.2c5.7,5.7,13.2,8.8,21.2,8.8s15.6-3.1,21.2-8.8c5.7-5.7,8.8-13.2,8.8-21.2
				C280,192.2,276.9,184.7,271.2,179z"/>
		</g>
		<linearGradient id="XMLID_3_" gradientUnits="userSpaceOnUse" x1="244.7222" y1="227.4978" x2="255.2765" y2="227.4978">
			<stop  offset="0" style="stop-color:#EDC5CA"/>
			<stop  offset="4.967931e-002" style="stop-color:#F2D5D7"/>
			<stop  offset="0.1398" style="stop-color:#FEF0EC"/>
			<stop  offset="0.2581" style="stop-color:#FCD1C6"/>
			<stop  offset="0.3602" style="stop-color:#FEF0EC"/>
			<stop  offset="0.4892" style="stop-color:#EDD5D5"/>
			<stop  offset="0.7204" style="stop-color:#FDE0D4"/>
			<stop  offset="0.8387" style="stop-color:#FEF0EC"/>
			<stop  offset="1" style="stop-color:#EDCFD6"/>
		</linearGradient>
		<path id="XMLID_262_" class="st1" d="M254.3,226.9v0.4l1-0.5C255,226.8,254.6,226.9,254.3,226.9z M244.7,226.7l2.7,1.5l-0.6-1.2
			C246.1,227,245.4,226.9,244.7,226.7z"/>
		<linearGradient id="XMLID_4_" gradientUnits="userSpaceOnUse" x1="229.4936" y1="193.4632" x2="270.5064" y2="193.4632">
			<stop  offset="0" style="stop-color:#EDC5CA"/>
			<stop  offset="4.967931e-002" style="stop-color:#F2D5D7"/>
			<stop  offset="0.1398" style="stop-color:#FEF0EC"/>
			<stop  offset="0.2581" style="stop-color:#FCD1C6"/>
			<stop  offset="0.3602" style="stop-color:#FEF0EC"/>
			<stop  offset="0.4892" style="stop-color:#EDD5D5"/>
			<stop  offset="0.7204" style="stop-color:#FDE0D4"/>
			<stop  offset="0.8387" style="stop-color:#FEF0EC"/>
			<stop  offset="1" style="stop-color:#EDCFD6"/>
		</linearGradient>
		<path id="XMLID_265_" class="st2" d="M266.5,180.6c0.7-7.4,2-9.3,4-14.1c-3.7,1.8-8.4,3.9-12.9,7.8c-2.3-2.3-6.9-7.6-7.6-12.5
			c-0.7,4.8-5.3,10.1-7.6,12.5c-4.5-4-9.2-6-12.9-7.8c2.4,5.5,3.7,7.2,4.3,18.1c0,0.1,0,0.2,0,0.3v0c0,0.1,0,0.2,0,0.3l0,0
			c0,0,0,0,0,0l0.1,5.5c0,0,0,0,0,0c0,0,0,0,0,0c0,0.4,0,0.8,0,1.2v0c0,3.4-0.2,5.4-0.3,6.8c-1.5,17.6,3,21.9,10.7,26.2l0,0
			l-4.4-6.8c-3.3-5.5-2.5-13-2.2-19c0.1-2.6,0.4-8.5,0.2-14.8c-0.2-3.2-0.5-6.4-1-9.2c8,5.7,10.3,12.3,13,19.2
			c2.6-6.4,4.8-13.3,13-19.2c-0.7,4.1-1.1,9.2-1.2,13.6v6.3c0,0,0,0,0-0.1c0.1,1.6,0.1,2.5,0.3,4.1c0.4,5,0.9,12.6-1.2,17.9
			l-5.3,7.9c0,0,0,0,0,0c7.7-4.3,12.2-8.6,10.7-26.2C265.8,192.4,266,185.2,266.5,180.6z M251.8,181c-0.6,0.9-1.8,2.9-1.8,2.9
			c0-0.1-1.1-2-1.7-2.8c-1-1.5-2-2.8-3-3.9c1.7-2,3.3-4.1,4.7-6.3c1.5,2.2,3.1,4.5,4.7,6.3C253.7,178.3,252.7,179.6,251.8,181z"/>
	</g>
	<g id="XMLID_269_">
		<linearGradient id="XMLID_5_" gradientUnits="userSpaceOnUse" x1="57.5361" y1="270.8355" x2="122.145" y2="270.8355">
			<stop  offset="0" style="stop-color:#EDC5CA"/>
			<stop  offset="4.967931e-002" style="stop-color:#F2D5D7"/>
			<stop  offset="0.1398" style="stop-color:#FEF0EC"/>
			<stop  offset="0.2581" style="stop-color:#FCD1C6"/>
			<stop  offset="0.3602" style="stop-color:#FEF0EC"/>
			<stop  offset="0.4892" style="stop-color:#EDD5D5"/>
			<stop  offset="0.7204" style="stop-color:#FDE0D4"/>
			<stop  offset="0.8387" style="stop-color:#FEF0EC"/>
			<stop  offset="1" style="stop-color:#EDCFD6"/>
		</linearGradient>
		<path id="XMLID_270_" class="st3" d="M119.5,246.7v1c-1.3,0.1-2.3,0.2-3.1,0.5c-0.8,0.2-1.5,0.8-2.1,1.6c-0.5,0.8-0.7,2-0.6,3.7
			l2.7,32.5c0.2,2.3,0.5,4,1,5c0.4,1.1,1,1.8,1.7,2.2c0.7,0.4,1.7,0.7,3.2,1.1v1H100v-1c1.9,0,3.3-0.5,4.4-1.5
			c1.1-0.9,1.5-2.8,1.3-5.6l-2.4-30.8h-0.1L87.3,295h-1.1l-16.3-37.5h-0.1l-2.1,26.9c-0.2,2.6,0,4.7,0.6,6.1
			c0.6,1.4,1.4,2.3,2.3,2.8c1,0.4,2.1,0.7,3.4,0.8v1H57.5v-1c2.1-0.1,3.6-1,4.7-2.5c1.1-1.5,1.8-4.1,2.1-7.6l3.2-30.6
			c-2-3.3-4.8-5.2-8.3-5.7v-1h17.5l14,31.8l13-31.8H119.5z"/>
		<linearGradient id="XMLID_6_" gradientUnits="userSpaceOnUse" x1="123.6218" y1="270.8355" x2="146.3279" y2="270.8355">
			<stop  offset="0" style="stop-color:#EDC5CA"/>
			<stop  offset="4.967931e-002" style="stop-color:#F2D5D7"/>
			<stop  offset="0.1398" style="stop-color:#FEF0EC"/>
			<stop  offset="0.2581" style="stop-color:#FCD1C6"/>
			<stop  offset="0.3602" style="stop-color:#FEF0EC"/>
			<stop  offset="0.4892" style="stop-color:#EDD5D5"/>
			<stop  offset="0.7204" style="stop-color:#FDE0D4"/>
			<stop  offset="0.8387" style="stop-color:#FEF0EC"/>
			<stop  offset="1" style="stop-color:#EDCFD6"/>
		</linearGradient>
		<path id="XMLID_272_" class="st4" d="M123.6,247.6v-0.9h22.7v1c-2.5,0-4.1,0.6-4.9,1.7c-0.7,1.1-1.1,2.7-1.1,4.5v33.9
			c0,1.1,0.1,2,0.3,2.9c0.2,0.9,0.7,1.6,1.6,2.3c0.8,0.7,2.1,1,3.9,1h0.3v1h-22.7v-1c2.5,0,4.1-0.6,4.9-1.7c0.7-1.1,1.1-2.6,1.1-4.5
			v-33.9c0-2.2-0.5-3.8-1.5-4.8C127.2,248.1,125.7,247.6,123.6,247.6z"/>
		<linearGradient id="XMLID_7_" gradientUnits="userSpaceOnUse" x1="148.1658" y1="271.0977" x2="204.6692" y2="271.0977">
			<stop  offset="0" style="stop-color:#EDC5CA"/>
			<stop  offset="4.967931e-002" style="stop-color:#F2D5D7"/>
			<stop  offset="0.1398" style="stop-color:#FEF0EC"/>
			<stop  offset="0.2581" style="stop-color:#FCD1C6"/>
			<stop  offset="0.3602" style="stop-color:#FEF0EC"/>
			<stop  offset="0.4892" style="stop-color:#EDD5D5"/>
			<stop  offset="0.7204" style="stop-color:#FDE0D4"/>
			<stop  offset="0.8387" style="stop-color:#FEF0EC"/>
			<stop  offset="1" style="stop-color:#EDCFD6"/>
		</linearGradient>
		<path id="XMLID_274_" class="st5" d="M165.7,246.7l29.5,31.1v-22.1c0-2.9-0.6-4.9-1.8-6c-1.2-1.1-3-1.8-5.4-2.1v-1h16.7v1
			c-1.8,0.2-3.2,0.7-4.1,1.5c-0.9,0.8-1.5,1.7-1.7,2.8c-0.3,1.1-0.4,2.3-0.4,3.8v39.8h-1.2l-35.4-37.2v27.2c0,2.3,0.5,4.2,1.5,5.8
			c1,1.6,2.8,2.5,5.4,2.7v1h-17.3v-1c4.8-0.4,7.2-2.8,7.2-7.1v-32c-0.1-0.1-0.3-0.2-0.5-0.5c-0.2-0.2-0.5-0.5-1-1
			c-0.5-0.4-0.9-0.8-1.2-1.2c-2.9-2.8-5.5-4.4-7.7-4.7v-1H165.7z"/>
		<linearGradient id="XMLID_8_" gradientUnits="userSpaceOnUse" x1="206.3102" y1="270.8355" x2="229.017" y2="270.8355">
			<stop  offset="0" style="stop-color:#EDC5CA"/>
			<stop  offset="4.967931e-002" style="stop-color:#F2D5D7"/>
			<stop  offset="0.1398" style="stop-color:#FEF0EC"/>
			<stop  offset="0.2581" style="stop-color:#FCD1C6"/>
			<stop  offset="0.3602" style="stop-color:#FEF0EC"/>
			<stop  offset="0.4892" style="stop-color:#EDD5D5"/>
			<stop  offset="0.7204" style="stop-color:#FDE0D4"/>
			<stop  offset="0.8387" style="stop-color:#FEF0EC"/>
			<stop  offset="1" style="stop-color:#EDCFD6"/>
		</linearGradient>
		<path id="XMLID_276_" class="st6" d="M206.3,247.6v-0.9H229v1c-2.5,0-4.1,0.6-4.9,1.7c-0.7,1.1-1.1,2.7-1.1,4.5v33.9
			c0,1.1,0.1,2,0.3,2.9c0.2,0.9,0.7,1.6,1.6,2.3c0.8,0.7,2.1,1,3.9,1h0.3v1h-22.7v-1c2.5,0,4.1-0.6,4.9-1.7c0.7-1.1,1.1-2.6,1.1-4.5
			v-33.9c0-2.2-0.5-3.8-1.5-4.8C209.8,248.1,208.3,247.6,206.3,247.6z"/>
		<linearGradient id="XMLID_9_" gradientUnits="userSpaceOnUse" x1="230.8549" y1="271.0977" x2="287.3575" y2="271.0977">
			<stop  offset="0" style="stop-color:#EDC5CA"/>
			<stop  offset="4.967931e-002" style="stop-color:#F2D5D7"/>
			<stop  offset="0.1398" style="stop-color:#FEF0EC"/>
			<stop  offset="0.2581" style="stop-color:#FCD1C6"/>
			<stop  offset="0.3602" style="stop-color:#FEF0EC"/>
			<stop  offset="0.4892" style="stop-color:#EDD5D5"/>
			<stop  offset="0.7204" style="stop-color:#FDE0D4"/>
			<stop  offset="0.8387" style="stop-color:#FEF0EC"/>
			<stop  offset="1" style="stop-color:#EDCFD6"/>
		</linearGradient>
		<path id="XMLID_278_" class="st7" d="M248.4,246.7l29.5,31.1v-22.1c0-2.9-0.6-4.9-1.8-6c-1.2-1.1-3-1.8-5.4-2.1v-1h16.7v1
			c-1.8,0.2-3.2,0.7-4.1,1.5c-0.9,0.8-1.5,1.7-1.7,2.8c-0.3,1.1-0.4,2.3-0.4,3.8v39.8h-1.2l-35.4-37.2v27.2c0,2.3,0.5,4.2,1.5,5.8
			c1,1.6,2.8,2.5,5.4,2.7v1h-17.3v-1c4.8-0.4,7.2-2.8,7.2-7.1v-32c-0.1-0.1-0.3-0.2-0.5-0.5c-0.2-0.2-0.5-0.5-1-1
			c-0.5-0.4-0.9-0.8-1.2-1.2c-2.9-2.8-5.5-4.4-7.7-4.7v-1H248.4z"/>
		<linearGradient id="XMLID_10_" gradientUnits="userSpaceOnUse" x1="287.5856" y1="270.606" x2="339.2989" y2="270.606">
			<stop  offset="0" style="stop-color:#EDC5CA"/>
			<stop  offset="4.967931e-002" style="stop-color:#F2D5D7"/>
			<stop  offset="0.1398" style="stop-color:#FEF0EC"/>
			<stop  offset="0.2581" style="stop-color:#FCD1C6"/>
			<stop  offset="0.3602" style="stop-color:#FEF0EC"/>
			<stop  offset="0.4892" style="stop-color:#EDD5D5"/>
			<stop  offset="0.7204" style="stop-color:#FDE0D4"/>
			<stop  offset="0.8387" style="stop-color:#FEF0EC"/>
			<stop  offset="1" style="stop-color:#EDCFD6"/>
		</linearGradient>
		<path id="XMLID_280_" class="st8" d="M315.6,246.2l16.2,41.8c0.9,2.1,1.9,3.6,3.1,4.4c1.2,0.8,2.6,1.3,4.4,1.6v1h-22.9v-1
			c3.1-0.2,4.7-1.2,4.7-3c0-0.3,0-0.7-0.1-1.2c-0.1-0.5-0.2-1.1-0.4-1.6s-0.3-0.9-0.3-1.1l-4-10.3h-14.4l-3.4,9.9
			c-0.4,1.2-0.7,2.3-0.7,3.2c0,1.5,0.4,2.5,1.3,3s1.9,0.9,3.1,1v1h-14.5v-1c1.5-0.2,2.9-0.9,4.2-2.1c1.3-1.3,2.6-3.6,3.8-6.9
			l13.7-38.8H315.6z M302.9,273.7h12l-6.2-16.3L302.9,273.7z"/>
		<linearGradient id="XMLID_11_" gradientUnits="userSpaceOnUse" x1="340.9406" y1="270.8355" x2="393.8017" y2="270.8355">
			<stop  offset="0" style="stop-color:#EDC5CA"/>
			<stop  offset="4.967931e-002" style="stop-color:#F2D5D7"/>
			<stop  offset="0.1398" style="stop-color:#FEF0EC"/>
			<stop  offset="0.2581" style="stop-color:#FCD1C6"/>
			<stop  offset="0.3602" style="stop-color:#FEF0EC"/>
			<stop  offset="0.4892" style="stop-color:#EDD5D5"/>
			<stop  offset="0.7204" style="stop-color:#FDE0D4"/>
			<stop  offset="0.8387" style="stop-color:#FEF0EC"/>
			<stop  offset="1" style="stop-color:#EDCFD6"/>
		</linearGradient>
		<path id="XMLID_283_" class="st9" d="M368.6,246.7H389v1c-2.6,0.2-5.1,1-7.6,2.6s-4.6,3.3-6.5,5.3l-8.7,9l20,24.3
			c2.8,3.3,5.3,5.1,7.7,5.2v1h-22.4v-1c0.8-0.1,1.5-0.3,2-0.5c0.5-0.3,0.8-0.7,0.8-1.3c0-0.6-0.4-1.5-1.3-2.6l-15-18.4h-0.2v16.5
			c0,2.3,0.5,3.9,1.4,4.8s2.5,1.4,4.5,1.4v1h-22.7v-1c2.5,0,4.2-0.6,4.9-1.7c0.7-1.1,1.1-2.6,1.1-4.5v-33.9c0-2.2-0.4-3.8-1.3-4.8
			c-0.8-1-2.4-1.5-4.7-1.5v-0.9h22.7v1c-2.5,0-4.1,0.6-4.9,1.7c-0.7,1.1-1.1,2.7-1.1,4.5v15.8l14.3-15.1c1.4-1.7,2.1-3,2.1-4.1
			c0-1.9-1.8-2.9-5.5-2.9V246.7z"/>
		<linearGradient id="XMLID_12_" gradientUnits="userSpaceOnUse" x1="392.0626" y1="270.8682" x2="442.4639" y2="270.8682">
			<stop  offset="0" style="stop-color:#EDC5CA"/>
			<stop  offset="4.967931e-002" style="stop-color:#F2D5D7"/>
			<stop  offset="0.1398" style="stop-color:#FEF0EC"/>
			<stop  offset="0.2581" style="stop-color:#FCD1C6"/>
			<stop  offset="0.3602" style="stop-color:#FEF0EC"/>
			<stop  offset="0.4892" style="stop-color:#EDD5D5"/>
			<stop  offset="0.7204" style="stop-color:#FDE0D4"/>
			<stop  offset="0.8387" style="stop-color:#FEF0EC"/>
			<stop  offset="1" style="stop-color:#EDCFD6"/>
		</linearGradient>
		<path id="XMLID_285_" class="st10" d="M392.1,270.7c0-3.3,0.6-6.4,1.7-9.4c1.1-3,2.8-5.6,5-7.9c2.2-2.3,4.8-4,8-5.3
			c3.1-1.3,6.6-1.9,10.6-1.9c4,0,7.5,0.6,10.6,1.9c3.1,1.3,5.8,3.1,7.9,5.3c2.2,2.3,3.8,4.9,4.9,7.9c1.1,3,1.7,6.2,1.7,9.5
			c0,3.3-0.5,6.5-1.6,9.5c-1.1,3-2.7,5.6-4.8,7.8c-2.1,2.3-4.7,4.1-7.9,5.4c-3.2,1.3-6.8,2-10.8,2c-4.3,0-8.1-0.7-11.3-2.2
			c-3.2-1.5-5.9-3.4-7.9-5.9c-2-2.4-3.6-5.1-4.5-8C392.6,276.5,392.1,273.6,392.1,270.7z M403.5,270.1c0,3.3,0.2,6.5,0.7,9.7
			c0.5,3.2,1.8,6.2,3.8,8.9c2.1,2.8,5.2,4.2,9.3,4.2c5.8,0,9.5-2.3,11.1-7c1.6-4.7,2.4-9.4,2.4-14.3c0-3.8-0.3-7.3-1-10.6
			c-0.7-3.3-2-6.1-4-8.5c-2-2.4-4.9-3.5-8.6-3.5c-4.2,0-7.3,1.3-9.3,4c-2,2.7-3.3,5.5-3.8,8.5C403.8,264.5,403.5,267.4,403.5,270.1z
			"/>
	</g>
	<g id="XMLID_288_">
		<linearGradient id="XMLID_13_" gradientUnits="userSpaceOnUse" x1="100.8576" y1="322.1747" x2="116.0967" y2="322.1747">
			<stop  offset="0" style="stop-color:#EDC5CA"/>
			<stop  offset="4.967931e-002" style="stop-color:#F2D5D7"/>
			<stop  offset="0.1398" style="stop-color:#FEF0EC"/>
			<stop  offset="0.2581" style="stop-color:#FCD1C6"/>
			<stop  offset="0.3602" style="stop-color:#FEF0EC"/>
			<stop  offset="0.4892" style="stop-color:#EDD5D5"/>
			<stop  offset="0.7204" style="stop-color:#FDE0D4"/>
			<stop  offset="0.8387" style="stop-color:#FEF0EC"/>
			<stop  offset="1" style="stop-color:#EDCFD6"/>
		</linearGradient>
		<path id="XMLID_289_" class="st11" d="M100.9,311.4h6.3c2.8,0,4.8,0.4,6.2,1.2c1.4,0.8,2.1,2.2,2.1,4.2c0,0.8-0.2,1.6-0.5,2.2
			c-0.3,0.7-0.8,1.2-1.3,1.6c-0.6,0.4-1.3,0.7-2.1,0.9v0.1c0.9,0.1,1.7,0.4,2.4,0.8c0.7,0.4,1.2,0.9,1.6,1.6
			c0.4,0.7,0.6,1.6,0.6,2.7c0,1.3-0.3,2.4-0.9,3.4c-0.6,0.9-1.5,1.6-2.6,2.1c-1.1,0.5-2.5,0.7-4.1,0.7h-7.6V311.4z M103.9,320.5h3.8
			c1.7,0,3-0.3,3.6-0.9c0.7-0.6,1-1.4,1-2.5c0-1.1-0.4-2-1.2-2.4c-0.8-0.5-2.1-0.7-3.8-0.7h-3.4V320.5z M103.9,323v7.5h4.1
			c1.8,0,3-0.4,3.8-1.1c0.7-0.7,1.1-1.6,1.1-2.8c0-0.7-0.2-1.4-0.5-1.9c-0.3-0.5-0.9-0.9-1.6-1.2c-0.7-0.3-1.7-0.4-3-0.4H103.9z"/>
		<linearGradient id="XMLID_14_" gradientUnits="userSpaceOnUse" x1="119.5596" y1="322.1529" x2="139.607" y2="322.1529">
			<stop  offset="0" style="stop-color:#EDC5CA"/>
			<stop  offset="4.967931e-002" style="stop-color:#F2D5D7"/>
			<stop  offset="0.1398" style="stop-color:#FEF0EC"/>
			<stop  offset="0.2581" style="stop-color:#FCD1C6"/>
			<stop  offset="0.3602" style="stop-color:#FEF0EC"/>
			<stop  offset="0.4892" style="stop-color:#EDD5D5"/>
			<stop  offset="0.7204" style="stop-color:#FDE0D4"/>
			<stop  offset="0.8387" style="stop-color:#FEF0EC"/>
			<stop  offset="1" style="stop-color:#EDCFD6"/>
		</linearGradient>
		<path id="XMLID_293_" class="st12" d="M139.6,322.1c0,1.7-0.2,3.2-0.6,4.6c-0.4,1.4-1.1,2.5-1.9,3.5c-0.8,1-1.9,1.7-3.1,2.3
			c-1.2,0.5-2.7,0.8-4.4,0.8c-1.7,0-3.2-0.3-4.4-0.8c-1.3-0.5-2.3-1.3-3.1-2.3c-0.8-1-1.4-2.2-1.9-3.5c-0.4-1.4-0.6-2.9-0.6-4.6
			c0-2.2,0.4-4.2,1.1-5.8c0.7-1.7,1.8-3,3.3-3.9c1.5-0.9,3.4-1.4,5.6-1.4c2.2,0,4,0.5,5.5,1.4c1.5,0.9,2.6,2.2,3.3,3.9
			C139.2,317.9,139.6,319.9,139.6,322.1z M122.7,322.1c0,1.8,0.2,3.3,0.7,4.6c0.5,1.3,1.2,2.3,2.2,3c1,0.7,2.3,1,3.9,1
			c1.6,0,2.9-0.3,3.9-1c1-0.7,1.7-1.7,2.2-3c0.5-1.3,0.7-2.8,0.7-4.6c0-2.7-0.5-4.7-1.6-6.3c-1.1-1.5-2.8-2.3-5.1-2.3
			c-1.6,0-2.9,0.3-3.9,1c-1,0.7-1.8,1.7-2.3,2.9S122.7,320.4,122.7,322.1z"/>
		<linearGradient id="XMLID_15_" gradientUnits="userSpaceOnUse" x1="144.1203" y1="322.3228" x2="161.0019" y2="322.3228">
			<stop  offset="0" style="stop-color:#EDC5CA"/>
			<stop  offset="4.967931e-002" style="stop-color:#F2D5D7"/>
			<stop  offset="0.1398" style="stop-color:#FEF0EC"/>
			<stop  offset="0.2581" style="stop-color:#FCD1C6"/>
			<stop  offset="0.3602" style="stop-color:#FEF0EC"/>
			<stop  offset="0.4892" style="stop-color:#EDD5D5"/>
			<stop  offset="0.7204" style="stop-color:#FDE0D4"/>
			<stop  offset="0.8387" style="stop-color:#FEF0EC"/>
			<stop  offset="1" style="stop-color:#EDCFD6"/>
		</linearGradient>
		<path id="XMLID_296_" class="st13" d="M161,311.4v14c0,1.5-0.3,2.9-0.9,4.1c-0.6,1.2-1.6,2.1-2.8,2.8c-1.3,0.7-2.9,1-4.8,1
			c-2.7,0-4.8-0.7-6.2-2.2c-1.4-1.5-2.1-3.4-2.1-5.8v-13.9h3v13.8c0,1.8,0.5,3.2,1.4,4.1c0.9,0.9,2.3,1.4,4.1,1.4
			c1.2,0,2.3-0.2,3-0.7c0.8-0.4,1.4-1.1,1.8-1.9c0.4-0.8,0.6-1.8,0.6-2.9v-13.8H161z"/>
		<linearGradient id="XMLID_16_" gradientUnits="userSpaceOnUse" x1="165.5588" y1="324.5791" x2="185.6061" y2="324.5791">
			<stop  offset="0" style="stop-color:#EDC5CA"/>
			<stop  offset="4.967931e-002" style="stop-color:#F2D5D7"/>
			<stop  offset="0.1398" style="stop-color:#FEF0EC"/>
			<stop  offset="0.2581" style="stop-color:#FCD1C6"/>
			<stop  offset="0.3602" style="stop-color:#FEF0EC"/>
			<stop  offset="0.4892" style="stop-color:#EDD5D5"/>
			<stop  offset="0.7204" style="stop-color:#FDE0D4"/>
			<stop  offset="0.8387" style="stop-color:#FEF0EC"/>
			<stop  offset="1" style="stop-color:#EDCFD6"/>
		</linearGradient>
		<path id="XMLID_298_" class="st14" d="M185.6,322.1c0,1.7-0.2,3.3-0.7,4.7c-0.5,1.4-1.1,2.6-2.1,3.6c-0.9,1-2,1.7-3.4,2.2l5.1,5.5
			h-4.2l-4.1-4.9c-0.1,0-0.2,0-0.3,0c-0.1,0-0.2,0-0.3,0c-1.7,0-3.2-0.3-4.4-0.8c-1.3-0.5-2.3-1.3-3.1-2.3c-0.8-1-1.4-2.2-1.9-3.5
			c-0.4-1.4-0.6-2.9-0.6-4.6c0-2.2,0.4-4.2,1.1-5.8c0.7-1.7,1.8-3,3.3-3.9c1.5-0.9,3.4-1.4,5.6-1.4c2.2,0,4,0.5,5.5,1.4
			c1.5,0.9,2.6,2.2,3.3,3.9C185.2,317.9,185.6,319.9,185.6,322.1z M168.7,322.1c0,1.8,0.2,3.3,0.7,4.6s1.2,2.3,2.2,3
			c1,0.7,2.3,1,3.9,1c1.6,0,2.9-0.3,3.9-1c1-0.7,1.7-1.7,2.2-3c0.5-1.3,0.7-2.8,0.7-4.6c0-2.7-0.5-4.7-1.6-6.3
			c-1.1-1.5-2.8-2.3-5.1-2.3c-1.6,0-2.9,0.3-3.9,1c-1,0.7-1.8,1.7-2.3,2.9C169,318.9,168.7,320.4,168.7,322.1z"/>
		<linearGradient id="XMLID_17_" gradientUnits="userSpaceOnUse" x1="190.1194" y1="322.3228" x2="207.001" y2="322.3228">
			<stop  offset="0" style="stop-color:#EDC5CA"/>
			<stop  offset="4.967931e-002" style="stop-color:#F2D5D7"/>
			<stop  offset="0.1398" style="stop-color:#FEF0EC"/>
			<stop  offset="0.2581" style="stop-color:#FCD1C6"/>
			<stop  offset="0.3602" style="stop-color:#FEF0EC"/>
			<stop  offset="0.4892" style="stop-color:#EDD5D5"/>
			<stop  offset="0.7204" style="stop-color:#FDE0D4"/>
			<stop  offset="0.8387" style="stop-color:#FEF0EC"/>
			<stop  offset="1" style="stop-color:#EDCFD6"/>
		</linearGradient>
		<path id="XMLID_301_" class="st15" d="M207,311.4v14c0,1.5-0.3,2.9-0.9,4.1c-0.6,1.2-1.6,2.1-2.8,2.8c-1.3,0.7-2.9,1-4.8,1
			c-2.7,0-4.8-0.7-6.2-2.2c-1.4-1.5-2.1-3.4-2.1-5.8v-13.9h3v13.8c0,1.8,0.5,3.2,1.4,4.1c0.9,0.9,2.3,1.4,4.1,1.4
			c1.2,0,2.3-0.2,3-0.7c0.8-0.4,1.4-1.1,1.8-1.9c0.4-0.8,0.6-1.8,0.6-2.9v-13.8H207z"/>
		<linearGradient id="XMLID_18_" gradientUnits="userSpaceOnUse" x1="212.6236" y1="322.1747" x2="224.771" y2="322.1747">
			<stop  offset="0" style="stop-color:#EDC5CA"/>
			<stop  offset="4.967931e-002" style="stop-color:#F2D5D7"/>
			<stop  offset="0.1398" style="stop-color:#FEF0EC"/>
			<stop  offset="0.2581" style="stop-color:#FCD1C6"/>
			<stop  offset="0.3602" style="stop-color:#FEF0EC"/>
			<stop  offset="0.4892" style="stop-color:#EDD5D5"/>
			<stop  offset="0.7204" style="stop-color:#FDE0D4"/>
			<stop  offset="0.8387" style="stop-color:#FEF0EC"/>
			<stop  offset="1" style="stop-color:#EDCFD6"/>
		</linearGradient>
		<path id="XMLID_303_" class="st16" d="M224.8,333h-12.1v-21.6h12.1v2.6h-9.1v6.4h8.6v2.6h-8.6v7.4h9.1V333z"/>
		<linearGradient id="XMLID_19_" gradientUnits="userSpaceOnUse" x1="226.9445" y1="322.1747" x2="243.1163" y2="322.1747">
			<stop  offset="0" style="stop-color:#EDC5CA"/>
			<stop  offset="4.967931e-002" style="stop-color:#F2D5D7"/>
			<stop  offset="0.1398" style="stop-color:#FEF0EC"/>
			<stop  offset="0.2581" style="stop-color:#FCD1C6"/>
			<stop  offset="0.3602" style="stop-color:#FEF0EC"/>
			<stop  offset="0.4892" style="stop-color:#EDD5D5"/>
			<stop  offset="0.7204" style="stop-color:#FDE0D4"/>
			<stop  offset="0.8387" style="stop-color:#FEF0EC"/>
			<stop  offset="1" style="stop-color:#EDCFD6"/>
		</linearGradient>
		<path id="XMLID_305_" class="st17" d="M236.6,333h-3v-19h-6.6v-2.6h16.2v2.6h-6.6V333z"/>
		<linearGradient id="XMLID_20_" gradientUnits="userSpaceOnUse" x1="252.9115" y1="322.1529" x2="273.4928" y2="322.1529">
			<stop  offset="0" style="stop-color:#EDC5CA"/>
			<stop  offset="4.967931e-002" style="stop-color:#F2D5D7"/>
			<stop  offset="0.1398" style="stop-color:#FEF0EC"/>
			<stop  offset="0.2581" style="stop-color:#FCD1C6"/>
			<stop  offset="0.3602" style="stop-color:#FEF0EC"/>
			<stop  offset="0.4892" style="stop-color:#EDD5D5"/>
			<stop  offset="0.7204" style="stop-color:#FDE0D4"/>
			<stop  offset="0.8387" style="stop-color:#FEF0EC"/>
			<stop  offset="1" style="stop-color:#EDCFD6"/>
		</linearGradient>
		<path id="XMLID_307_" class="st18" d="M260.6,311c1.1,0,2,0.2,2.8,0.6c0.8,0.4,1.4,0.9,1.9,1.6c0.4,0.7,0.7,1.5,0.7,2.5
			c0,1.3-0.4,2.4-1.2,3.3c-0.8,0.9-1.9,1.7-3.1,2.4l5.5,5.4c0.5-0.6,0.9-1.4,1.3-2.2c0.3-0.8,0.6-1.7,0.9-2.6h3
			c-0.3,1.3-0.7,2.5-1.2,3.6c-0.5,1.1-1.2,2.2-2,3.1l4.4,4.3h-3.9l-2.4-2.4c-0.6,0.5-1.3,1-2,1.4c-0.7,0.4-1.5,0.7-2.3,0.9
			c-0.9,0.2-1.8,0.3-2.9,0.3c-1.4,0-2.7-0.2-3.8-0.7c-1.1-0.5-1.9-1.1-2.4-2c-0.6-0.9-0.9-2-0.9-3.2c0-1,0.2-1.9,0.5-2.7
			c0.4-0.7,0.9-1.4,1.6-2c0.7-0.6,1.5-1.1,2.4-1.7c-0.5-0.5-0.9-1.1-1.3-1.6c-0.4-0.5-0.7-1.1-0.9-1.7c-0.2-0.6-0.3-1.2-0.3-1.9
			c0-1,0.2-1.8,0.7-2.6c0.5-0.7,1.1-1.3,2-1.6C258.5,311.2,259.5,311,260.6,311z M259.2,322.8c-0.7,0.4-1.2,0.8-1.7,1.2
			c-0.5,0.4-0.8,0.8-1.1,1.3c-0.3,0.5-0.4,1.1-0.4,1.8c0,1.1,0.4,2,1.1,2.6c0.7,0.6,1.7,1,3,1c1.2,0,2.2-0.2,3-0.6
			c0.8-0.4,1.6-0.8,2.2-1.4L259.2,322.8z M260.6,313.4c-0.8,0-1.5,0.2-2,0.6c-0.5,0.4-0.8,1-0.8,1.8c0,0.7,0.2,1.3,0.6,1.9
			c0.4,0.6,0.9,1.2,1.5,1.9c1.1-0.6,2-1.2,2.5-1.8c0.5-0.6,0.8-1.3,0.8-2.1c0-0.7-0.2-1.3-0.7-1.7
			C261.9,313.6,261.3,313.4,260.6,313.4z"/>
		<linearGradient id="XMLID_21_" gradientUnits="userSpaceOnUse" x1="284.382" y1="322.1747" x2="296.5149" y2="322.1747">
			<stop  offset="0" style="stop-color:#EDC5CA"/>
			<stop  offset="4.967931e-002" style="stop-color:#F2D5D7"/>
			<stop  offset="0.1398" style="stop-color:#FEF0EC"/>
			<stop  offset="0.2581" style="stop-color:#FCD1C6"/>
			<stop  offset="0.3602" style="stop-color:#FEF0EC"/>
			<stop  offset="0.4892" style="stop-color:#EDD5D5"/>
			<stop  offset="0.7204" style="stop-color:#FDE0D4"/>
			<stop  offset="0.8387" style="stop-color:#FEF0EC"/>
			<stop  offset="1" style="stop-color:#EDCFD6"/>
		</linearGradient>
		<path id="XMLID_311_" class="st19" d="M287.4,333h-3v-21.6h12.1v2.6h-9.1v7.3h8.6v2.6h-8.6V333z"/>
		<linearGradient id="XMLID_22_" gradientUnits="userSpaceOnUse" x1="300.272" y1="322.1747" x2="312.6998" y2="322.1747">
			<stop  offset="0" style="stop-color:#EDC5CA"/>
			<stop  offset="4.967931e-002" style="stop-color:#F2D5D7"/>
			<stop  offset="0.1398" style="stop-color:#FEF0EC"/>
			<stop  offset="0.2581" style="stop-color:#FCD1C6"/>
			<stop  offset="0.3602" style="stop-color:#FEF0EC"/>
			<stop  offset="0.4892" style="stop-color:#EDD5D5"/>
			<stop  offset="0.7204" style="stop-color:#FDE0D4"/>
			<stop  offset="0.8387" style="stop-color:#FEF0EC"/>
			<stop  offset="1" style="stop-color:#EDCFD6"/>
		</linearGradient>
		<path id="XMLID_313_" class="st20" d="M300.3,333v-21.6h3v19h9.4v2.6H300.3z"/>
		<linearGradient id="XMLID_23_" gradientUnits="userSpaceOnUse" x1="315.3499" y1="322.1529" x2="335.3979" y2="322.1529">
			<stop  offset="0" style="stop-color:#EDC5CA"/>
			<stop  offset="4.967931e-002" style="stop-color:#F2D5D7"/>
			<stop  offset="0.1398" style="stop-color:#FEF0EC"/>
			<stop  offset="0.2581" style="stop-color:#FCD1C6"/>
			<stop  offset="0.3602" style="stop-color:#FEF0EC"/>
			<stop  offset="0.4892" style="stop-color:#EDD5D5"/>
			<stop  offset="0.7204" style="stop-color:#FDE0D4"/>
			<stop  offset="0.8387" style="stop-color:#FEF0EC"/>
			<stop  offset="1" style="stop-color:#EDCFD6"/>
		</linearGradient>
		<path id="XMLID_315_" class="st21" d="M335.4,322.1c0,1.7-0.2,3.2-0.6,4.6c-0.4,1.4-1.1,2.5-1.9,3.5c-0.8,1-1.9,1.7-3.1,2.3
			c-1.2,0.5-2.7,0.8-4.4,0.8c-1.7,0-3.2-0.3-4.4-0.8c-1.3-0.5-2.3-1.3-3.1-2.3c-0.8-1-1.4-2.2-1.9-3.5c-0.4-1.4-0.6-2.9-0.6-4.6
			c0-2.2,0.4-4.2,1.1-5.8c0.7-1.7,1.8-3,3.3-3.9c1.5-0.9,3.4-1.4,5.6-1.4c2.2,0,4,0.5,5.5,1.4c1.5,0.9,2.6,2.2,3.3,3.9
			C335,317.9,335.4,319.9,335.4,322.1z M318.5,322.1c0,1.8,0.2,3.3,0.7,4.6s1.2,2.3,2.2,3c1,0.7,2.3,1,3.9,1c1.6,0,2.9-0.3,3.9-1
			c1-0.7,1.7-1.7,2.2-3s0.7-2.8,0.7-4.6c0-2.7-0.5-4.7-1.6-6.3c-1.1-1.5-2.8-2.3-5.1-2.3c-1.6,0-2.9,0.3-3.9,1
			c-1,0.7-1.8,1.7-2.3,2.9C318.8,318.9,318.5,320.4,318.5,322.1z"/>
		<linearGradient id="XMLID_24_" gradientUnits="userSpaceOnUse" x1="337.5569" y1="322.1747" x2="365.1947" y2="322.1747">
			<stop  offset="0" style="stop-color:#EDC5CA"/>
			<stop  offset="4.967931e-002" style="stop-color:#F2D5D7"/>
			<stop  offset="0.1398" style="stop-color:#FEF0EC"/>
			<stop  offset="0.2581" style="stop-color:#FCD1C6"/>
			<stop  offset="0.3602" style="stop-color:#FEF0EC"/>
			<stop  offset="0.4892" style="stop-color:#EDD5D5"/>
			<stop  offset="0.7204" style="stop-color:#FDE0D4"/>
			<stop  offset="0.8387" style="stop-color:#FEF0EC"/>
			<stop  offset="1" style="stop-color:#EDCFD6"/>
		</linearGradient>
		<path id="XMLID_318_" class="st22" d="M365.2,311.4l-5.7,21.6h-3.2l-4-13.8c-0.1-0.4-0.2-0.8-0.3-1.2c-0.1-0.4-0.2-0.8-0.3-1.3
			c-0.1-0.4-0.2-0.8-0.3-1.1c-0.1-0.3-0.1-0.6-0.1-0.8c0,0.2-0.1,0.4-0.1,0.8c-0.1,0.3-0.1,0.7-0.2,1.1c-0.1,0.4-0.2,0.8-0.3,1.3
			c-0.1,0.4-0.2,0.8-0.3,1.2l-3.9,13.7h-3.2l-5.7-21.6h3.1l3.3,13.1c0.1,0.4,0.2,0.9,0.3,1.3c0.1,0.4,0.2,0.9,0.3,1.3
			c0.1,0.4,0.2,0.9,0.2,1.3c0.1,0.4,0.1,0.8,0.2,1.2c0-0.4,0.1-0.8,0.2-1.2c0.1-0.4,0.2-0.9,0.3-1.3c0.1-0.5,0.2-0.9,0.3-1.3
			c0.1-0.4,0.2-0.9,0.3-1.3l3.7-13.1h3l3.8,13.2c0.1,0.4,0.2,0.8,0.3,1.3c0.1,0.5,0.2,0.9,0.3,1.4c0.1,0.5,0.2,0.9,0.3,1.3
			c0.1,0.4,0.1,0.8,0.2,1.2c0.1-0.5,0.2-1,0.3-1.6c0.1-0.6,0.2-1.2,0.4-1.8c0.1-0.6,0.3-1.2,0.4-1.8l3.3-13.1H365.2z"/>
		<linearGradient id="XMLID_25_" gradientUnits="userSpaceOnUse" x1="368.4201" y1="322.1747" x2="380.5675" y2="322.1747">
			<stop  offset="0" style="stop-color:#EDC5CA"/>
			<stop  offset="4.967931e-002" style="stop-color:#F2D5D7"/>
			<stop  offset="0.1398" style="stop-color:#FEF0EC"/>
			<stop  offset="0.2581" style="stop-color:#FCD1C6"/>
			<stop  offset="0.3602" style="stop-color:#FEF0EC"/>
			<stop  offset="0.4892" style="stop-color:#EDD5D5"/>
			<stop  offset="0.7204" style="stop-color:#FDE0D4"/>
			<stop  offset="0.8387" style="stop-color:#FEF0EC"/>
			<stop  offset="1" style="stop-color:#EDCFD6"/>
		</linearGradient>
		<path id="XMLID_320_" class="st23" d="M380.6,333h-12.1v-21.6h12.1v2.6h-9.1v6.4h8.6v2.6h-8.6v7.4h9.1V333z"/>
		<linearGradient id="XMLID_26_" gradientUnits="userSpaceOnUse" x1="385.2879" y1="322.1747" x2="401.0456" y2="322.1747">
			<stop  offset="0" style="stop-color:#EDC5CA"/>
			<stop  offset="4.967931e-002" style="stop-color:#F2D5D7"/>
			<stop  offset="0.1398" style="stop-color:#FEF0EC"/>
			<stop  offset="0.2581" style="stop-color:#FCD1C6"/>
			<stop  offset="0.3602" style="stop-color:#FEF0EC"/>
			<stop  offset="0.4892" style="stop-color:#EDD5D5"/>
			<stop  offset="0.7204" style="stop-color:#FDE0D4"/>
			<stop  offset="0.8387" style="stop-color:#FEF0EC"/>
			<stop  offset="1" style="stop-color:#EDCFD6"/>
		</linearGradient>
		<path id="XMLID_322_" class="st24" d="M391.3,311.4c1.8,0,3.3,0.2,4.5,0.7s2.1,1.1,2.7,2c0.6,0.9,0.9,2.1,0.9,3.5
			c0,1.1-0.2,2-0.6,2.8c-0.4,0.8-0.9,1.4-1.6,1.9c-0.7,0.5-1.4,0.9-2.1,1.1l6.1,9.6h-3.5l-5.3-8.8h-4v8.8h-3v-21.6H391.3z
			 M391.1,313.9h-2.7v7.7h2.9c1.7,0,3-0.3,3.7-1c0.8-0.7,1.2-1.6,1.2-3c0-1.4-0.4-2.3-1.3-2.9C394.1,314.2,392.8,313.9,391.1,313.9z
			"/>
	</g>
</g>
</svg>
